<?xml version="1.0" encoding="UTF-8"?>
<svg id="Layer_1" data-name="Layer 1" xmlns="http://www.w3.org/2000/svg" width="2212.69" height="912.62" viewBox="0 0 2212.69 912.62">
  <defs>
    <style>
      .cls-1 {
        fill: #231f20;
        stroke-width: 0px;
      }
    </style>
  </defs>
  <path class="cls-1" d="M57.84,455.99h-15.87c-1.66,0-3-1.34-3-3s1.34-3,3-3h15.87c1.66,0,3,1.34,3,3s-1.34,3-3,3ZM15.51,455.99H3c-1.66,0-3-1.34-3-3v-66.86c0-1.66,1.34-3,3-3s3,1.34,3,3v63.86h9.51c1.66,0,3,1.34,3,3s-1.34,3-3,3ZM92.75,411.54c-1.66,0-3-1.34-3-3v-26.46c0-1.66,1.34-3,3-3s3,1.34,3,3v26.46c0,1.66-1.34,3-3,3ZM3,373.26c-1.66,0-3-1.34-3-3v-26.46c0-1.66,1.34-3,3-3s3,1.34,3,3v26.46c0,1.66-1.34,3-3,3ZM92.75,369.2c-1.66,0-3-1.34-3-3v-79.37c0-1.66,1.34-3,3-3s3,1.34,3,3v79.37c0,1.66-1.34,3-3,3ZM123.62,278.36h-15.87c-1.66,0-3-1.34-3-3s1.34-3,3-3h15.87c1.66,0,3,1.34,3,3s-1.34,3-3,3ZM202.03,269.19c-1.25,0-2.42-.79-2.84-2.05-.53-1.57.32-3.27,1.89-3.8,8.46-2.84,16.37-6.4,23.51-10.59,1.43-.84,3.27-.36,4.11,1.07.84,1.43.36,3.27-1.07,4.11-7.5,4.4-15.79,8.14-24.64,11.1-.32.11-.64.16-.95.16ZM3,267.43c-1.66,0-3-1.34-3-3v-15.87c0-1.66,1.34-3,3-3s3,1.34,3,3v15.87c0,1.66-1.34,3-3,3ZM239.19,249.38c-.88,0-1.76-.39-2.35-1.13-1.03-1.3-.82-3.18.48-4.22,1.34-1.07,2.68-2.19,3.96-3.33,11.86-10.45,21.23-24.12,27.87-40.63,2.67-6.65,4.84-13.85,6.45-21.42.34-1.62,1.94-2.66,3.56-2.31,1.62.34,2.66,1.94,2.31,3.56-1.68,7.91-3.95,15.45-6.75,22.42-6.99,17.38-16.9,31.81-29.47,42.89-1.36,1.2-2.77,2.38-4.19,3.52-.55.44-1.21.65-1.87.65ZM3,225.1c-1.66,0-3-1.34-3-3v-79.37c0-1.66,1.34-3,3-3s3,1.34,3,3v79.37c0,1.66-1.34,3-3,3ZM132.64,212.3c-1.66,0-3-1.34-3-3s1.34-3,3-3c16.97,0,30.84-5.16,41.22-15.35,6.55-6.43,11.09-15.32,13.5-26.44.35-1.62,1.95-2.65,3.57-2.3,1.62.35,2.65,1.95,2.3,3.57-2.66,12.28-7.76,22.19-15.16,29.45-11.54,11.32-26.82,17.06-45.42,17.06ZM92.75,195.76c-1.66,0-3-1.34-3-3v-26.46c0-1.66,1.34-3,3-3s3,1.34,3,3v26.46c0,1.66-1.34,3-3,3ZM281.91,156.06c-.06,0-.11,0-.17,0-1.65-.09-2.92-1.5-2.83-3.16.2-3.74.31-7.62.31-11.54,0-1.37-.01-2.74-.04-4.1-.03-1.66,1.28-3.03,2.94-3.06,1.68-.03,3.03,1.28,3.06,2.94.03,1.41.04,2.82.04,4.23,0,4.02-.11,8.01-.32,11.87-.09,1.6-1.41,2.84-2.99,2.84ZM92.75,153.43c-1.66,0-3-1.34-3-3v-76.38c0-1.66,1.34-3,3-3h2.99c1.66,0,3,1.34,3,3s-1.34,3-2.99,3v73.38c0,1.66-1.34,3-3,3ZM192.3,152.42c-.05,0-.11,0-.16,0-1.65-.09-2.93-1.5-2.84-3.15.11-2.15.17-4.39.17-6.66,0-6.87-.46-13.29-1.38-19.1-.26-1.64.86-3.17,2.5-3.43,1.64-.26,3.17.86,3.43,2.5.97,6.11,1.46,12.85,1.46,20.03,0,2.37-.06,4.72-.18,6.97-.08,1.6-1.41,2.84-2.99,2.84ZM3,129.85c-1.66,0-3-1.34-3-3v-26.46c0-1.66,1.34-3,3-3s3,1.34,3,3v26.46c0,1.66-1.34,3-3,3ZM138.07,77.31c-.07,0-.14,0-.21,0-2.47-.17-5.06-.23-7.72-.25h-7.94c-1.66,0-3-1.34-3-3s1.34-3,3-3h7.96c2.78,0,5.51.09,8.11.27,1.65.11,2.9,1.54,2.79,3.2-.11,1.58-1.43,2.8-2.99,2.8ZM263.05,64.03c-1.03,0-2.02-.53-2.58-1.47-2.24-3.79-4.74-7.49-7.43-10.99-2.5-3.26-5.26-6.4-8.19-9.33-1.17-1.17-1.18-3.07,0-4.24,1.17-1.17,3.07-1.17,4.24,0,3.12,3.12,6.06,6.46,8.72,9.93,2.83,3.69,5.46,7.59,7.83,11.58.84,1.43.37,3.27-1.05,4.11-.48.28-1.01.42-1.53.42ZM234.89,32.83c-.61,0-1.23-.19-1.76-.57-5.08-3.7-10.72-7.08-16.74-10.05-15.1-7.45-34.05-11.22-56.32-11.22-1.66,0-3-1.34-3-3s1.34-3,3-3c23.2,0,43.05,3.98,58.98,11.84,6.33,3.12,12.25,6.69,17.61,10.58,1.34.97,1.64,2.85.66,4.19-.59.81-1.5,1.24-2.43,1.24ZM3,24.02c-1.66,0-3-1.34-3-3V7.98c0-1.66,1.34-3,3-3h2.83c1.66,0,3,1.34,3,3s-1.25,2.91-2.83,3v10.04c0,1.66-1.34,3-3,3ZM153.99,10.98h-26.46c-1.66,0-3-1.34-3-3s1.34-3,3-3h26.46c1.66,0,3,1.34,3,3s-1.34,3-3,3ZM111.66,10.98H32.29c-1.66,0-3-1.34-3-3s1.34-3,3-3h79.37c1.66,0,3,1.34,3,3s-1.34,3-3,3Z"/>
  <path class="cls-1" d="M342.68,462.85c-15.36,0-28.61-2.73-39.36-8.11-10.8-5.39-19.57-12.96-26.06-22.5-.93-1.36-.62-3.27.74-4.21,1.36-.94,3.19-.65,4.13.71l.1.14c5.9,8.66,13.91,15.56,23.78,20.49,9.92,4.96,22.26,7.48,36.68,7.48,2.27,0,4.53-.03,6.71-.1,1.65-.05,3.04,1.26,3.09,2.91.05,1.66-1.26,3.04-2.91,3.09-2.24.07-4.55.1-6.88.1ZM375.77,460.07c-1.41,0-2.67-1-2.94-2.44-.31-1.63.75-3.2,2.38-3.51,5.38-1.03,10.38-2.37,14.86-3.99,1.56-.56,3.28.25,3.84,1.81.56,1.56-.25,3.28-1.81,3.84-4.78,1.72-10.08,3.15-15.77,4.24-.19.04-.38.05-.57.05ZM522.18,455.99h-50.4c-1.66,0-3-1.34-3-3s1.34-3,3-3h45.96c-3.27-8.49-5.58-16.61-6.87-24.18-.28-1.63.82-3.18,2.45-3.46,1.63-.28,3.18.82,3.46,2.45,1.42,8.35,4.17,17.44,8.16,27.03.39.93.28,1.98-.27,2.82s-1.49,1.34-2.5,1.34ZM455.9,455.99h-15.99c-1.1,0-2.12-.6-2.64-1.57-1.72-3.19-3.22-6.54-4.45-9.95-.56-1.56.24-3.28,1.8-3.84,1.56-.56,3.28.24,3.84,1.8.93,2.57,2.02,5.11,3.27,7.56h14.18c1.66,0,3,1.34,3,3s-1.34,3-3,3ZM271.91,419.63c-1.14,0-2.23-.65-2.73-1.76-2.48-5.47-4.52-11.34-6.07-17.43-.72-2.81-1.36-5.66-1.9-8.47-.31-1.63.75-3.2,2.37-3.52,1.62-.31,3.2.75,3.52,2.37.52,2.69,1.14,5.43,1.83,8.13,1.46,5.75,3.39,11.28,5.72,16.43.68,1.51.02,3.29-1.49,3.97-.4.18-.82.27-1.24.27ZM511.71,401.96c-1.62,0-2.96-1.29-3-2.93-.08-3.41-.13-7.06-.13-10.86v-5.08c0-1.66,1.34-3,3-3s3,1.34,3,3v5.08c0,3.75.04,7.36.12,10.71.04,1.66-1.27,3.03-2.93,3.07-.02,0-.05,0-.08,0ZM410.99,394.73c-.89,0-1.78-.4-2.37-1.16-1.02-1.31-.78-3.19.52-4.21l.53-.42c3.56-2.85,6.71-6.4,9.34-10.56.89-1.4,2.74-1.81,4.14-.93,1.4.89,1.81,2.74.93,4.14-2.99,4.72-6.58,8.76-10.66,12.03l-.59.47c-.55.43-1.2.63-1.84.63ZM346.79,381.18c-1.3,0-2.5-.85-2.88-2.16-1.98-6.79-2.99-14.4-2.99-22.63,0-1.54.04-3.08.12-4.56.09-1.65,1.5-2.92,3.15-2.84,1.65.09,2.93,1.5,2.84,3.15-.07,1.38-.11,2.81-.11,4.25,0,7.66.92,14.71,2.75,20.95.46,1.59-.45,3.26-2.04,3.72-.28.08-.56.12-.84.12ZM429.22,358.01c-.05,0-.1,0-.15,0-1.65-.08-2.93-1.49-2.84-3.15.06-1.12.09-2.28.09-3.45v-60.16c-1.13.76-2.27,1.49-3.42,2.19-1.42.86-3.26.4-4.12-1.01-.86-1.42-.4-3.26,1.01-4.12,2.62-1.59,5.2-3.37,7.67-5.31.9-.71,2.13-.84,3.17-.34,1.03.5,1.69,1.55,1.69,2.7v66.07c0,1.27-.03,2.53-.09,3.75-.08,1.6-1.41,2.85-2.99,2.85ZM346.7,339.38c-.3,0-.6-.04-.9-.14-1.58-.5-2.46-2.18-1.96-3.76,1.98-6.32,5.02-11.9,9.03-16.57,7.88-9.19,21.01-15.81,39.04-19.68,5.21-1.2,11.14-3.15,17.57-5.76,1.54-.62,3.29.11,3.91,1.65.62,1.54-.11,3.29-1.65,3.91-6.73,2.74-12.96,4.78-18.53,6.06-16.76,3.59-28.79,9.56-35.79,17.73-3.48,4.05-6.12,8.92-7.86,14.46-.4,1.28-1.59,2.1-2.86,2.1ZM270.84,316.38c-.41,0-.82-.08-1.22-.26-1.51-.68-2.19-2.45-1.52-3.96,2.3-5.14,5.06-9.94,8.22-14.28.98-1.34,2.85-1.64,4.19-.66,1.34.98,1.63,2.85.66,4.19-2.91,4-5.46,8.44-7.59,13.19-.5,1.12-1.59,1.78-2.74,1.78ZM511.58,306.72c-1.66,0-3-1.34-3-3v-26.46c0-1.66,1.34-3,3-3s3,1.34,3,3v26.46c0,1.66-1.34,3-3,3ZM297.77,284.45c-.96,0-1.9-.46-2.48-1.31-.93-1.37-.58-3.24.79-4.17,3.3-2.25,6.89-4.36,10.65-6.28,10.73-5.47,23.81-10.36,38.89-14.55l25.51-6.87c1.6-.43,3.25.52,3.68,2.12.43,1.6-.52,3.25-2.12,3.68l-25.48,6.86c-14.66,4.08-27.37,8.83-37.75,14.11-3.54,1.8-6.9,3.79-10,5.9-.52.35-1.1.52-1.69.52ZM511.58,264.39c-1.66,0-3-1.34-3-3v-49.6c0-10.22-.75-20.04-2.24-29.17-.27-1.64.84-3.18,2.48-3.44,1.64-.27,3.18.84,3.44,2.48,1.54,9.45,2.32,19.59,2.32,30.14v49.6c0,1.66-1.34,3-3,3ZM387.23,253.04c-1.32,0-2.53-.88-2.9-2.22-.43-1.6.52-3.25,2.12-3.68l7.8-2.1c6.61-1.71,12.18-3.76,16.56-6.11,1.46-.78,3.28-.23,4.06,1.23.78,1.46.23,3.28-1.23,4.06-4.8,2.57-10.81,4.8-17.86,6.62l-7.77,2.09c-.26.07-.52.1-.78.1ZM349.53,223.52h-19.04c-1.66,0-3-1.34-3-3s1.34-3,3-3h16.04v-6.35c0-13.96,3.59-25.3,10.68-33.72,3.96-4.7,9.06-8.17,15.16-10.29,1.56-.55,3.27.28,3.82,1.84s-.28,3.27-1.84,3.82c-5.07,1.77-9.29,4.63-12.55,8.49-6.15,7.31-9.27,17.35-9.27,29.86v9.35c0,1.66-1.34,3-3,3ZM314.61,223.52h-26.46c-1.66,0-3-1.34-3-3s1.34-3,3-3h26.46c1.66,0,3,1.34,3,3s-1.34,3-3,3ZM414.42,176.33c-.55,0-1.11-.15-1.6-.47-3.62-2.3-8.24-3.87-13.73-4.67-1.64-.24-2.77-1.76-2.53-3.4.24-1.64,1.77-2.77,3.4-2.53,6.33.93,11.74,2.79,16.08,5.54,1.4.89,1.81,2.74.92,4.14-.57.9-1.54,1.39-2.54,1.39ZM502.18,159.75c-1.13,0-2.22-.65-2.73-1.74-2.13-4.6-4.77-8.96-7.87-12.96-1.01-1.31-.78-3.19.53-4.21,1.31-1.01,3.19-.78,4.21.53,3.37,4.35,6.26,9.1,8.57,14.12.69,1.5.04,3.29-1.47,3.98-.41.19-.83.28-1.26.28ZM306.84,134.7c-.9,0-1.79-.41-2.39-1.18-1.01-1.32-.76-3.2.56-4.21,10.87-8.31,23.82-14.36,38.5-17.98,11.99-2.95,24.77-4.7,37.99-5.22,1.67-.05,3.05,1.22,3.11,2.88.06,1.66-1.23,3.05-2.88,3.11-12.82.5-25.2,2.2-36.79,5.05-13.87,3.42-26.08,9.11-36.29,16.92-.54.42-1.19.62-1.82.62ZM423.89,113.7c-.11,0-.23,0-.35-.02-7.93-.91-16.71-1.47-26.11-1.65-1.66-.03-2.97-1.4-2.94-3.06.03-1.66,1.41-2.99,3.06-2.94,9.59.19,18.56.76,26.68,1.69,1.65.19,2.83,1.68,2.64,3.32-.18,1.53-1.47,2.66-2.98,2.66Z"/>
  <path class="cls-1" d="M596.34,399.8c-1.66,0-3-1.34-3-3v-26.46c0-1.66,1.34-3,3-3s3,1.34,3,3v26.46c0,1.66-1.34,3-3,3ZM596.34,357.46c-1.66,0-3-1.34-3-3v-79.37c0-1.66,1.34-3,3-3s3,1.34,3,3v79.37c0,1.66-1.34,3-3,3ZM596.34,251.64c-1.66,0-3-1.34-3-3v-15.87c0-1.66,1.34-3,3-3s3,1.34,3,3v15.87c0,1.66-1.34,3-3,3ZM596.34,156.39c-1.66,0-3-1.34-3-3v-26.46c0-1.66,1.34-3,3-3s3,1.34,3,3v26.46c0,1.66-1.34,3-3,3ZM510.33,144.68c-1.66,0-3-1.34-3-3V62.3c0-1.66,1.34-3,3-3s3,1.34,3,3v79.37c0,1.66-1.34,3-3,3ZM596.34,114.06c-1.66,0-3-1.34-3-3V31.69c0-1.66,1.34-3,3-3s3,1.34,3,3v79.37c0,1.66-1.34,3-3,3ZM510.33,49.43c-1.66,0-3-1.34-3-3v-26.46c0-1.66,1.34-3,3-3s3,1.34,3,3v26.46c0,1.66-1.34,3-3,3ZM593.59,10.98h-15.87c-1.66,0-3-1.34-3-3s1.34-3,3-3h15.87c1.66,0,3,1.34,3,3s-1.34,3-3,3Z"/>
  <path class="cls-1" d="M888.64,462.85c-15.52,0-29.28-1.39-40.89-4.13-4.62-1.09-9.02-2.42-13.08-3.94-1.55-.58-2.34-2.31-1.75-3.86.58-1.55,2.31-2.34,3.86-1.75,3.82,1.43,7.98,2.69,12.35,3.72,11.16,2.63,24.45,3.97,39.51,3.97,8.86,0,17.32-.51,25.14-1.51,1.64-.21,3.15.95,3.36,2.59s-.95,3.15-2.59,3.36c-8.07,1.03-16.78,1.56-25.9,1.56ZM679.22,462.85c-15.36,0-28.6-2.73-39.36-8.11-1.01-.5-2.02-1.04-3-1.58-1.45-.81-1.97-2.63-1.16-4.08.81-1.45,2.63-1.97,4.08-1.16.9.5,1.83.99,2.76,1.46,9.92,4.96,22.26,7.48,36.68,7.48,13.1,0,24.93-.62,35.17-1.85.44-.05.88-.11,1.31-.17,1.65-.21,3.15.94,3.37,2.58s-.94,3.15-2.58,3.37c-.46.06-.92.12-1.38.17-10.48,1.26-22.55,1.89-35.89,1.89ZM939.96,455.64c-1.26,0-2.43-.8-2.85-2.06-.52-1.57.34-3.27,1.91-3.79,5.03-1.65,9.82-3.63,14.24-5.86,1.48-.75,3.28-.16,4.03,1.32.75,1.48.16,3.28-1.32,4.03-4.69,2.37-9.76,4.46-15.08,6.21-.31.1-.63.15-.94.15ZM741.62,454.14c-1.18,0-2.29-.7-2.77-1.85-.64-1.53.09-3.29,1.62-3.92.48-.2.96-.41,1.44-.62,4.06-1.79,8.04-4.06,11.82-6.75,1.35-.96,3.22-.65,4.18.7.96,1.35.65,3.22-.7,4.18-4.11,2.93-8.44,5.4-12.89,7.35-.52.23-1.03.45-1.55.66-.38.16-.77.23-1.15.23ZM821.5,447.99c-.55,0-1.1-.15-1.6-.46-.72-.46-1.43-.93-2.13-1.4-7.17-4.9-13.36-10.48-18.39-16.6-1.05-1.28-.87-3.17.41-4.22,1.28-1.05,3.17-.87,4.22.41,4.67,5.68,10.44,10.88,17.14,15.46.64.44,1.29.87,1.95,1.28,1.4.89,1.82,2.74.93,4.14-.57.9-1.54,1.4-2.54,1.4ZM625.48,444.27c-.73,0-1.46-.26-2.04-.8-3.6-3.34-6.85-7.12-9.65-11.23-2.37-3.47-4.53-7.15-6.43-10.94-.74-1.48-.14-3.28,1.34-4.03,1.48-.74,3.28-.14,4.03,1.34,1.78,3.55,3.81,7,6.02,10.25,2.55,3.74,5.5,7.17,8.77,10.21,1.21,1.13,1.29,3.02.16,4.24-.59.64-1.39.96-2.2.96ZM747.54,394.73c-.89,0-1.78-.4-2.37-1.16-1.02-1.31-.78-3.19.52-4.21l.53-.42c3.56-2.85,6.71-6.4,9.35-10.56.89-1.4,2.74-1.81,4.14-.93,1.4.89,1.81,2.74.93,4.14-2.99,4.72-6.58,8.77-10.67,12.03l-.59.47c-.55.43-1.2.63-1.84.63ZM859.65,390.5c-.96,0-1.91-.46-2.49-1.32-1.8-2.66-3.45-5.62-4.9-8.8-2.29-4.99-4.17-10.54-5.6-16.5-.39-1.61.61-3.23,2.22-3.62,1.62-.39,3.23.61,3.62,2.22,1.34,5.58,3.09,10.76,5.22,15.4,1.31,2.88,2.8,5.55,4.41,7.93.93,1.37.57,3.24-.8,4.17-.52.35-1.1.52-1.68.52ZM1002.32,389.03c-.29,0-.58-.04-.87-.13-1.59-.48-2.48-2.16-2-3.74,2.37-7.8,4.19-16.34,5.4-25.37.22-1.64,1.73-2.8,3.37-2.57,1.64.22,2.79,1.73,2.57,3.37-1.26,9.36-3.15,18.21-5.61,26.32-.39,1.29-1.58,2.13-2.87,2.13ZM922.97,382.16c-.4,0-.81-.08-1.2-.25-1.52-.66-2.21-2.43-1.55-3.95,1.84-4.23,3.48-9.13,4.87-14.58.41-1.6,2.04-2.57,3.65-2.16,1.61.41,2.57,2.04,2.16,3.65-1.47,5.76-3.22,10.97-5.19,15.49-.49,1.13-1.59,1.8-2.75,1.8ZM683.34,381.17c-1.3,0-2.5-.85-2.88-2.16-1.98-6.78-2.99-14.4-2.99-22.62,0-1.55.04-3.08.12-4.57.09-1.65,1.49-2.92,3.15-2.84,1.65.09,2.93,1.5,2.84,3.15-.07,1.38-.11,2.81-.11,4.25,0,7.66.92,14.7,2.75,20.94.46,1.59-.45,3.26-2.04,3.72-.28.08-.56.12-.84.12ZM765.77,358.01c-.05,0-.1,0-.15,0-1.65-.08-2.93-1.49-2.84-3.15.06-1.12.09-2.29.09-3.46v-60.16c-1.13.76-2.26,1.49-3.41,2.19-1.42.86-3.26.4-4.12-1.01-.86-1.42-.4-3.26,1.01-4.12,2.62-1.59,5.2-3.38,7.66-5.31.9-.71,2.13-.84,3.17-.34,1.03.5,1.69,1.55,1.69,2.7v66.07c0,1.27-.03,2.53-.09,3.76-.08,1.6-1.41,2.85-2.99,2.85ZM846.9,350.55c-1.5,0-2.8-1.12-2.98-2.65-.86-7.33-1.29-14.95-1.29-22.67v-26.8c0-1.66,1.34-3,3-3h30.2c1.66,0,3,1.34,3,3s-1.34,3-3,3h-27.2v23.8c0,7.48.42,14.88,1.25,21.97.19,1.65-.98,3.14-2.63,3.33-.12.01-.24.02-.35.02ZM1009.34,347.39c-.06,0-.12,0-.18,0-1.65-.1-2.91-1.52-2.81-3.17.02-.34.04-.68.06-1.02h-72.01c-1.66,0-3-1.34-3-3s1.34-3,3-3h75.16c.82,0,1.6.33,2.17.92s.87,1.39.83,2.2c-.06,1.43-.13,2.85-.22,4.26-.1,1.59-1.42,2.82-2.99,2.82ZM683.25,339.38c-.3,0-.6-.04-.9-.14-1.58-.5-2.46-2.18-1.96-3.76,1.98-6.32,5.02-11.89,9.02-16.56,7.88-9.2,21.02-15.82,39.05-19.68,5.19-1.2,11.12-3.14,17.58-5.76,1.53-.62,3.29.12,3.91,1.65.62,1.54-.12,3.29-1.65,3.91-6.75,2.74-12.99,4.78-18.53,6.06-16.76,3.59-28.79,9.55-35.8,17.73-3.47,4.05-6.11,8.92-7.85,14.46-.4,1.28-1.59,2.1-2.86,2.1ZM603.19,327.92c-.28,0-.56-.04-.84-.12-1.59-.46-2.51-2.13-2.04-3.72,3.42-11.77,8.75-22,15.85-30.4,7.09-8.37,16.21-15.43,27.1-20.99,3.67-1.87,7.65-3.69,11.83-5.41,1.53-.63,3.29.1,3.92,1.63.63,1.53-.1,3.29-1.63,3.92-4.03,1.66-7.87,3.41-11.39,5.21-10.18,5.2-18.68,11.76-25.25,19.52-6.55,7.75-11.49,17.24-14.67,28.19-.38,1.31-1.58,2.16-2.88,2.16ZM1014.54,301.43h-17c-1.66,0-3-1.34-3-3s1.34-3,3-3h14v-6.46c0-1.66,1.34-3,3-3s3,1.34,3,3v9.46c0,1.66-1.34,3-3,3ZM918.17,301.43h-15.87c-1.66,0-3-1.34-3-3s1.34-3,3-3h15.87c1.66,0,3,1.34,3,3s-1.34,3-3,3ZM1014.51,276.1c-1.64,0-2.98-1.32-3-2.97-.24-23.11-1.89-44.53-4.92-63.67-.79-4.98-1.76-9.86-2.89-14.48-.39-1.61.6-3.23,2.21-3.62,1.61-.39,3.23.6,3.62,2.21,1.16,4.78,2.17,9.82,2.98,14.96,3.07,19.43,4.75,41.15,4.99,64.55.02,1.66-1.31,3.01-2.97,3.03h-.03ZM671.14,267.6c-1.26,0-2.44-.8-2.85-2.07-.51-1.58.34-3.27,1.92-3.78,3.8-1.24,7.83-2.46,11.95-3.6l13.65-3.67c1.6-.43,3.25.52,3.68,2.12.43,1.6-.52,3.25-2.12,3.68l-13.62,3.67c-4.02,1.12-7.95,2.3-11.67,3.52-.31.1-.62.15-.93.15ZM917.68,250.32h-15.87c-1.66,0-3-1.34-3-3s1.34-3,3-3h15.87c1.66,0,3,1.34,3,3s-1.34,3-3,3ZM931.71,238.47c-1.57,0-2.89-1.22-2.99-2.81-1.26-20-4.04-35.74-8.29-46.78-4.76-12.33-14.95-18.33-31.17-18.33-7.65,0-14.09,1.81-19.15,5.37-3.76,2.65-7,5.94-9.65,9.78-.94,1.37-2.81,1.71-4.17.77-1.37-.94-1.71-2.81-.77-4.17,3.05-4.43,6.79-8.23,11.13-11.29,6.1-4.29,13.7-6.47,22.61-6.47,18.72,0,31.09,7.46,36.77,22.18,4.46,11.62,7.38,27.95,8.68,48.56.1,1.65-1.15,3.08-2.81,3.18-.06,0-.13,0-.19,0ZM846.03,227.12c-.08,0-.16,0-.24,0-1.65-.13-2.89-1.57-2.76-3.23.36-4.61.98-9.29,1.83-13.89.82-4.46,1.95-8.76,3.35-12.77.55-1.56,2.26-2.39,3.82-1.84,1.56.55,2.39,2.26,1.84,3.82-1.3,3.72-2.35,7.72-3.12,11.88-.81,4.4-1.4,8.86-1.74,13.27-.12,1.57-1.44,2.77-2.99,2.77ZM764.09,226.13c-.27,0-.54-.04-.82-.11-1.59-.45-2.52-2.11-2.07-3.7,1.1-3.89,1.66-8.48,1.66-13.64,0-.41,0-.82,0-1.22-.03-1.66,1.3-3.02,2.95-3.04,1.66-.02,3.02,1.3,3.04,2.95,0,.43.01.87.01,1.31,0,5.71-.63,10.84-1.88,15.27-.37,1.32-1.58,2.19-2.89,2.19ZM686.08,223.52h-6.76c-1.66,0-3-1.34-3-3s1.34-3,3-3h3.76v-6.35c0-3.77.26-7.4.78-10.77.25-1.64,1.79-2.76,3.42-2.51,1.64.25,2.76,1.78,2.51,3.42-.47,3.07-.71,6.39-.71,9.86v9.35c0,1.66-1.34,3-3,3ZM608.8,214.67h-.01c-1.66,0-2.99-1.36-2.99-3.01.02-5.62.31-11.05.84-16.15.17-1.65,1.65-2.85,3.3-2.67,1.65.17,2.84,1.65,2.67,3.3-.52,4.9-.79,10.13-.81,15.54,0,1.65-1.35,2.99-3,2.99ZM691.68,188.83c-.48,0-.97-.12-1.42-.36-1.46-.79-2-2.6-1.22-4.06,1.34-2.49,2.93-4.83,4.72-6.96,7.21-8.56,18.05-12.91,32.21-12.91,15.4,0,26.56,4.03,33.16,11.99,1.03,1.24,1.99,2.58,2.85,3.96.88,1.41.45,3.26-.96,4.13-1.41.88-3.26.44-4.13-.96-.72-1.16-1.52-2.27-2.38-3.3-5.41-6.51-15.01-9.82-28.54-9.82-12.31,0-21.6,3.62-27.62,10.77-1.53,1.81-2.88,3.81-4.03,5.94-.54,1.01-1.58,1.58-2.64,1.58ZM615.37,173.07c-.35,0-.7-.06-1.04-.19-1.55-.57-2.35-2.3-1.77-3.85.87-2.35,1.84-4.65,2.88-6.83,6.41-13.47,15.2-24.53,26.13-32.88,8.29-6.34,17.83-11.39,28.34-15,1.57-.54,3.27.3,3.81,1.86.54,1.57-.3,3.27-1.86,3.81-9.9,3.4-18.86,8.14-26.64,14.09-10.16,7.77-18.36,18.1-24.36,30.7-.96,2.02-1.86,4.15-2.67,6.33-.45,1.21-1.59,1.96-2.81,1.96ZM998.18,172.24c-1.15,0-2.24-.66-2.74-1.78-2.12-4.74-4.52-9.28-7.13-13.49l-.1-.16c-.88-1.41-.45-3.26.96-4.13,1.41-.88,3.26-.45,4.13.96l.12.19c2.74,4.43,5.27,9.21,7.5,14.19.68,1.51,0,3.29-1.51,3.96-.4.18-.81.26-1.22.26ZM816.37,146.11c-.54,0-1.09-.15-1.58-.45-1.41-.87-1.84-2.72-.97-4.13,6.55-10.55,16.07-18.96,28.3-24.99,12.29-6.06,26.57-9.55,42.43-10.39,1.65-.08,3.07,1.18,3.15,2.84s-1.18,3.07-2.84,3.15c-15.05.8-28.54,4.09-40.1,9.78-11.21,5.52-19.91,13.18-25.86,22.77-.57.92-1.55,1.42-2.55,1.42ZM801.41,135.85c-.8,0-1.6-.32-2.2-.96-3.59-3.85-7.45-7.17-11.49-9.86-1.38-.92-1.75-2.78-.83-4.16.92-1.38,2.78-1.75,4.16-.83,4.42,2.95,8.64,6.57,12.55,10.77,1.13,1.21,1.06,3.11-.15,4.24-.58.54-1.31.8-2.04.8ZM686.19,116.01c-1.39,0-2.63-.97-2.93-2.38-.34-1.62.69-3.21,2.31-3.56,8.52-1.81,17.48-3.03,26.61-3.65,1.66-.13,3.08,1.14,3.19,2.79.11,1.65-1.14,3.08-2.79,3.19-8.85.6-17.52,1.78-25.77,3.53-.21.04-.42.07-.62.07ZM926.85,115.09c-.2,0-.4-.02-.6-.06-7.84-1.59-16.51-2.58-25.77-2.93-1.66-.06-2.95-1.46-2.88-3.11.06-1.66,1.47-2.94,3.11-2.88,9.59.36,18.58,1.39,26.74,3.04,1.62.33,2.67,1.91,2.34,3.54-.29,1.42-1.54,2.4-2.94,2.4Z"/>
  <path class="cls-1" d="M1117.62,462.78s-.04,0-.06,0c-21.07-.42-39.13-2.74-53.69-6.9-9.19-2.63-17.44-6.05-24.52-10.17-1.43-.83-1.92-2.67-1.08-4.1.83-1.43,2.67-1.92,4.1-1.08,6.65,3.87,14.44,7.1,23.15,9.59,14.06,4.02,31.61,6.26,52.16,6.67,1.66.03,2.97,1.4,2.94,3.06-.03,1.64-1.37,2.94-3,2.94ZM1144.06,462.12c-1.55,0-2.86-1.19-2.99-2.76-.13-1.65,1.1-3.1,2.76-3.23,5.31-.42,10.53-1.03,15.53-1.81,1.64-.25,3.17.86,3.43,2.5s-.86,3.17-2.5,3.43c-5.15.81-10.53,1.43-15.99,1.86-.08,0-.16,0-.24,0ZM1028.08,436.76c-.73,0-1.46-.26-2.03-.79-.5-.46-.98-.92-1.46-1.39-1.18-1.16-1.2-3.06-.04-4.24,1.16-1.18,3.06-1.2,4.24-.04.44.43.88.85,1.33,1.27,1.22,1.12,1.3,3.02.17,4.24-.59.64-1.4.97-2.21.97ZM1228.49,424.47c-.66,0-1.33-.22-1.88-.66-1.29-1.04-1.49-2.93-.45-4.22,4.37-5.42,8.17-11.5,11.3-18.06.6-1.26,1.18-2.57,1.72-3.88.63-1.53,2.39-2.26,3.92-1.63,1.53.63,2.26,2.39,1.63,3.92-.58,1.41-1.21,2.82-1.85,4.17-3.33,6.98-7.38,13.46-12.04,19.24-.59.74-1.46,1.12-2.34,1.12ZM1155.69,395.91c-.84,0-1.68-.35-2.27-1.04-1.08-1.25-.94-3.15.31-4.23,3.58-3.1,6.28-7.04,8.02-11.72.58-1.55,2.31-2.35,3.86-1.77,1.55.58,2.35,2.3,1.77,3.85-2.09,5.65-5.36,10.42-9.72,14.18-.57.49-1.26.73-1.96.73ZM1246.69,386.66c-.22,0-.44-.02-.66-.07-1.62-.36-2.63-1.97-2.27-3.58,1.82-8.12,2.74-17.07,2.74-26.62,0-19.51-3.44-35.96-10.23-48.89-.77-1.47-.21-3.28,1.26-4.05,1.47-.77,3.28-.2,4.05,1.26,7.25,13.81,10.92,31.2,10.92,51.68,0,9.99-.97,19.38-2.89,27.93-.31,1.4-1.55,2.34-2.92,2.34ZM1085.72,386.4c-1.03,0-2.03-.53-2.59-1.48-4.39-7.46-6.85-16.42-7.32-26.65-.08-1.66,1.2-3.06,2.86-3.13,1.66-.07,3.06,1.2,3.13,2.86.42,9.24,2.61,17.27,6.5,23.88.84,1.43.37,3.27-1.06,4.11-.48.28-1,.42-1.52.42ZM1166.31,356.87c-1.39,0-2.63-.97-2.93-2.38-1.22-5.72-3.67-10.18-7.51-13.64-5.91-5.32-12.93-9.63-20.87-12.82l-33.73-12.17c-1.56-.56-2.37-2.28-1.8-3.84s2.28-2.37,3.84-1.8l33.78,12.19s.07.02.1.04c8.62,3.46,16.25,8.15,22.7,13.95,4.74,4.27,7.89,9.94,9.36,16.85.34,1.62-.69,3.21-2.31,3.56-.21.04-.42.07-.63.07ZM1078.73,345.26c-1.34,0-2.47-.88-2.86-2.09h-74.43c-1.66,0-3-1.34-3-3s1.34-3,3-3h77.28c1.66,0,3,1.34,3,3v2.09c0,1.66-1.34,3-3,3ZM1087.36,310.65c-.34,0-.68-.06-1.02-.18l-11.75-4.24c-4.57-1.6-9.02-3.37-13.19-5.24-1.51-.68-2.19-2.45-1.51-3.97.68-1.51,2.45-2.19,3.97-1.51,4.01,1.8,8.3,3.5,12.74,5.06l11.77,4.25c1.56.56,2.37,2.28,1.8,3.84-.44,1.22-1.59,1.98-2.82,1.98ZM1222.56,288.52c-.7,0-1.4-.24-1.97-.74-3.64-3.18-7.81-6.24-12.39-9.1-1.41-.88-1.84-2.73-.96-4.13.88-1.41,2.73-1.84,4.13-.96,4.86,3.03,9.29,6.28,13.17,9.67,1.25,1.09,1.38,2.99.29,4.23-.59.68-1.42,1.03-2.26,1.03ZM1136.09,250.17c-.32,0-.64-.05-.96-.16l-12.49-4.21c-4.64-1.46-8.93-3.07-12.7-4.77-1.51-.68-2.18-2.46-1.5-3.97s2.46-2.18,3.97-1.5c3.55,1.6,7.61,3.13,12.09,4.53l12.55,4.23c1.57.53,2.41,2.23,1.88,3.8-.42,1.25-1.59,2.04-2.84,2.04ZM1097.7,233.02c-.71,0-1.41-.25-1.98-.75-1.56-1.37-2.93-2.82-4.08-4.3-5.59-7.13-8.43-15.3-8.43-24.28,0-12.99,4.5-22.92,13.36-29.52,5.45-4.05,11.55-6.85,18.14-8.34,1.62-.36,3.22.65,3.59,2.27.36,1.62-.65,3.22-2.27,3.59-5.77,1.3-11.11,3.76-15.88,7.3-7.36,5.48-10.94,13.56-10.94,24.7,0,7.71,2.34,14.44,7.15,20.59.93,1.19,2.05,2.37,3.32,3.49,1.24,1.1,1.36,2.99.27,4.23-.59.67-1.42,1.02-2.25,1.02ZM1228.32,221.02h-26.46c-1.66,0-3-1.34-3-3s1.34-3,3-3h26.46c1.66,0,3,1.34,3,3s-1.34,3-3,3ZM1242.02,218.85c-1.66,0-3-1.34-3-3v-11.54c0-25.2-6.72-45.74-19.99-61.05-1.08-1.25-.95-3.15.3-4.23,1.25-1.08,3.15-.95,4.23.3,14.23,16.43,21.45,38.29,21.45,64.98v11.54c0,1.66-1.34,3-3,3ZM1154.83,180.76c-.85,0-1.69-.36-2.29-1.06-2.88-3.39-6.87-5.86-11.85-7.36-1.59-.48-2.49-2.15-2.01-3.74.48-1.59,2.15-2.49,3.74-2.01,6.11,1.83,11.05,4.94,14.69,9.22,1.07,1.26.92,3.16-.34,4.23-.56.48-1.25.71-1.94.71ZM1010.79,173.97c-.35,0-.7-.06-1.05-.19-1.55-.58-2.34-2.31-1.76-3.86,4.71-12.64,12.31-23.83,22.6-33.26,9.35-8.57,21.24-15.62,35.32-20.97,1.55-.59,3.28.19,3.87,1.74.59,1.55-.19,3.28-1.74,3.87-13.37,5.07-24.61,11.73-33.4,19.78-9.58,8.79-16.65,19.19-21.03,30.93-.45,1.21-1.59,1.95-2.81,1.95ZM1200.96,127.58c-.51,0-1.02-.13-1.49-.4-4.25-2.44-8.94-4.61-13.93-6.46-1.55-.58-2.35-2.3-1.77-3.86.58-1.55,2.3-2.34,3.86-1.77,5.3,1.97,10.29,4.28,14.83,6.89,1.44.82,1.93,2.66,1.11,4.1-.55.97-1.57,1.51-2.61,1.51ZM1082.11,116.78c-1.35,0-2.58-.92-2.91-2.29-.39-1.61.59-3.23,2.2-3.63,8.12-1.98,17.06-3.38,26.58-4.16,1.67-.13,3.1,1.1,3.23,2.75.13,1.65-1.09,3.1-2.75,3.23-9.21.75-17.83,2.1-25.64,4.01-.24.06-.48.09-.71.09Z"/>
  <path class="cls-1" d="M1319.92,457.86c-16.72,0-30.66-1.18-41.45-3.5-11.22-2.41-19.97-7.37-26-14.74-2.15-2.62-4.07-5.58-5.72-8.78-.76-1.47-.18-3.28,1.29-4.04,1.47-.76,3.28-.18,4.04,1.29,1.46,2.83,3.15,5.43,5.03,7.73,5.15,6.29,12.76,10.56,22.62,12.68,10.38,2.23,23.9,3.36,40.19,3.36,1.66,0,3,1.34,3,3s-1.34,3-3,3ZM1376.02,455.99c-1.66,0-3-1.34-3-3v-56.43c-1.16.13-2.34.24-3.55.34-1.67.13-3.1-1.1-3.23-2.75-.13-1.65,1.1-3.1,2.75-3.23,2.32-.19,4.54-.43,6.61-.73.86-.12,1.73.13,2.39.7s1.04,1.4,1.04,2.27v59.83c0,1.66-1.34,3-3,3ZM1244.08,417.56c-1.36,0-2.59-.93-2.92-2.32-.31-1.33-.6-2.71-.85-4.09-.3-1.63.78-3.19,2.41-3.5,1.63-.3,3.19.78,3.5,2.41.24,1.29.51,2.57.8,3.81.38,1.61-.62,3.23-2.24,3.6-.23.05-.46.08-.69.08ZM1342.92,395.84c-.26,0-.53-.04-.8-.11-5.65-1.56-9.85-4.25-12.5-8.01-.59-.84-1.14-1.75-1.65-2.73-.76-1.47-.19-3.28,1.28-4.05,1.47-.77,3.28-.19,4.05,1.28.38.74.8,1.42,1.23,2.04,1.82,2.59,4.91,4.5,9.18,5.68,1.6.44,2.54,2.09,2.09,3.69-.37,1.33-1.57,2.2-2.89,2.2ZM1326.15,307.85c-1.66,0-3-1.34-3-3v-26.46c0-1.66,1.34-3,3-3s3,1.34,3,3v26.46c0,1.66-1.34,3-3,3ZM1240.15,274.5c-1.66,0-3-1.34-3-3v-41.14c0-1.66,1.34-3,3-3s3,1.34,3,3v41.14c0,1.66-1.34,3-3,3ZM1326.15,265.52c-1.66,0-3-1.34-3-3v-79.37c0-1.66,1.34-3,3-3s3,1.34,3,3v79.37c0,1.66-1.34,3-3,3ZM1361.6,179.26h-15.87c-1.66,0-3-1.34-3-3s1.34-3,3-3h15.87c1.66,0,3,1.34,3,3s-1.34,3-3,3ZM1369.65,120.68h-26.46c-1.66,0-3-1.34-3-3s1.34-3,3-3h26.46c1.66,0,3,1.34,3,3s-1.34,3-3,3ZM1327.32,120.68h-1.17c-1.66,0-3-1.34-3-3V39.48c0-1.66,1.34-3,3-3s3,1.34,3,3v75.83c.71.55,1.17,1.41,1.17,2.38,0,1.66-1.34,3-3,3ZM1240.15,120.68h-43.63c-1.66,0-3-1.34-3-3s1.34-3,3-3h40.63v-32.74c0-1.66,1.34-3,3-3s3,1.34,3,3v35.74c0,1.66-1.34,3-3,3ZM1240.15,69.07c-1.66,0-3-1.34-3-3v-26.46c0-1.66,1.34-3,3-3s3,1.34,3,3v26.46c0,1.66-1.34,3-3,3ZM1317.48,24.7h-15.87c-1.66,0-3-1.34-3-3s1.34-3,3-3h15.87c1.66,0,3,1.34,3,3s-1.34,3-3,3Z"/>
  <path class="cls-1" d="M1460.15,384.39c-1.66,0-3-1.34-3-3v-26.46c0-1.66,1.34-3,3-3s3,1.34,3,3v26.46c0,1.66-1.34,3-3,3ZM1376.02,381.35c-1.66,0-3-1.34-3-3v-79.37c0-1.66,1.34-3,3-3s3,1.34,3,3v79.37c0,1.66-1.34,3-3,3ZM1460.15,342.06c-1.66,0-3-1.34-3-3v-79.37c0-1.66,1.34-3,3-3s3,1.34,3,3v79.37c0,1.66-1.34,3-3,3ZM1376.02,286.11c-1.66,0-3-1.34-3-3v-26.46c0-1.66,1.34-3,3-3s3,1.34,3,3v26.46c0,1.66-1.34,3-3,3ZM1460.15,236.23c-1.66,0-3-1.34-3-3v-15.87c0-1.66,1.34-3,3-3s3,1.34,3,3v15.87c0,1.66-1.34,3-3,3ZM1376.02,180.28c-1.66,0-3-1.34-3-3v-15.87c0-1.66,1.34-3,3-3s3,1.34,3,3v15.87c0,1.66-1.34,3-3,3ZM1460.15,140.99c-1.66,0-3-1.34-3-3v-17.31h-3.15c-1.66,0-3-1.34-3-3s1.34-3,3-3h6.15c1.66,0,3,1.34,3,3v20.31c0,1.66-1.34,3-3,3ZM1376.02,137.95c-1.66,0-3-1.34-3-3v-17.27c0-1.66,1.34-3,3-3h62.11c1.66,0,3,1.34,3,3s-1.34,3-3,3h-59.11v14.27c0,1.66-1.34,3-3,3ZM1460.15,79.54h-5.83c-1.66,0-3-1.34-3-3s1.34-3,3-3h2.83V6h-72.7c-1.66,0-3-1.34-3-3s1.34-3,3-3h75.7c1.66,0,3,1.34,3,3v73.54c0,1.66-1.34,3-3,3ZM1438.45,79.54h-26.46c-1.66,0-3-1.34-3-3s1.34-3,3-3h26.46c1.66,0,3,1.34,3,3s-1.34,3-3,3ZM1374.14,38.02c-1.66,0-3-1.34-3-3v-15.87c0-1.66,1.34-3,3-3s3,1.34,3,3v15.87c0,1.66-1.34,3-3,3Z"/>
  <path class="cls-1" d="M1715.06,455.99h-26.51c-1.66,0-3-1.34-3-3s1.34-3,3-3h23.51v-49.86c0-1.66,1.34-3,3-3s3,1.34,3,3v52.86c0,1.66-1.34,3-3,3ZM1672.68,455.99h-26.46c-1.66,0-3-1.34-3-3s1.34-3,3-3h26.46c1.66,0,3,1.34,3,3s-1.34,3-3,3ZM1546.78,455.99h-65.75c-1.66,0-3-1.34-3-3s1.34-3,3-3h62.75v-10.62c0-1.66,1.34-3,3-3s3,1.34,3,3v13.62c0,1.66-1.34,3-3,3ZM1465.16,455.99h-4.39c-1.66,0-3-1.34-3-3v-22.07c0-1.66,1.34-3,3-3s3,1.34,3,3v19.07h1.39c1.66,0,3,1.34,3,3s-1.34,3-3,3ZM1546.78,415.91c-1.66,0-3-1.34-3-3v-15.87c0-1.66,1.34-3,3-3s3,1.34,3,3v15.87c0,1.66-1.34,3-3,3ZM1629.05,393.8c-1.66,0-3-1.34-3-3v-15.87c0-1.66,1.34-3,3-3s3,1.34,3,3v15.87c0,1.66-1.34,3-3,3ZM1715.06,376.68c-1.66,0-3-1.34-3-3v-15.87c0-1.66,1.34-3,3-3s3,1.34,3,3v15.87c0,1.66-1.34,3-3,3ZM1460.77,354.55c-1.66,0-3-1.34-3-3v-15.87c0-1.66,1.34-3,3-3s3,1.34,3,3v15.87c0,1.66-1.34,3-3,3ZM1629.05,351.47c-1.66,0-3-1.34-3-3v-79.37c0-1.66,1.34-3,3-3s3,1.34,3,3v79.37c0,1.66-1.34,3-3,3ZM1546.78,320.67c-1.66,0-3-1.34-3-3v-26.46c0-1.66,1.34-3,3-3s3,1.34,3,3v26.46c0,1.66-1.34,3-3,3ZM1460.77,312.22c-1.66,0-3-1.34-3-3v-79.37c0-1.66,1.34-3,3-3s3,1.34,3,3v79.37c0,1.66-1.34,3-3,3ZM1715.06,281.43c-1.66,0-3-1.34-3-3v-26.46c0-1.66,1.34-3,3-3s3,1.34,3,3v26.46c0,1.66-1.34,3-3,3ZM1546.78,278.34c-1.66,0-3-1.34-3-3v-44.85c0-14.17,2.23-25.93,6.62-34.95.73-1.49,2.52-2.11,4.01-1.38,1.49.73,2.11,2.52,1.38,4.01-3.99,8.19-6.01,19.07-6.01,32.32v44.85c0,1.66-1.34,3-3,3ZM1629.05,256.22c-1.66,0-3-1.34-3-3v-26.46c0-1.66,1.34-3,3-3s3,1.34,3,3v26.46c0,1.66-1.34,3-3,3ZM1715.06,239.1c-1.66,0-3-1.34-3-3v-31.79c0-18.01-2.18-33.46-6.48-45.92-.54-1.57.29-3.27,1.86-3.81,1.57-.54,3.27.29,3.82,1.86,4.52,13.09,6.81,29.19,6.81,47.88v31.79c0,1.66-1.34,3-3,3ZM1460.77,216.98c-1.66,0-3-1.34-3-3v-26.46c0-1.66,1.34-3,3-3s3,1.34,3,3v26.46c0,1.66-1.34,3-3,3ZM1571.6,181.81c-1.16,0-2.27-.68-2.76-1.81-.66-1.52.04-3.29,1.56-3.94,4.79-2.07,10.29-3.36,16.33-3.83,1.67-.13,3.1,1.11,3.22,2.76s-1.11,3.1-2.76,3.22c-5.38.42-10.23,1.55-14.42,3.35-.39.17-.79.25-1.19.25ZM1544.28,159.94h-1.25c-1.66,0-3-1.34-3-3v-36.26h-27.41c-1.66,0-3-1.34-3-3s1.34-3,3-3h30.41c1.66,0,3,1.34,3,3v30.49c6.07-9.32,13.18-17.1,21.19-23.2,1.32-1,3.2-.75,4.2.57,1,1.32.75,3.2-.57,4.2-9.36,7.12-17.41,16.76-23.95,28.64-.53.96-1.54,1.55-2.63,1.55ZM1695.7,137.4c-.85,0-1.69-.36-2.28-1.05-.84-.98-1.72-1.94-2.62-2.85-2.63-2.66-5.51-5.11-8.56-7.28-1.35-.96-1.67-2.83-.71-4.18.96-1.35,2.83-1.67,4.18-.71,3.34,2.37,6.49,5.05,9.36,7.96,1,1.01,1.98,2.08,2.91,3.17,1.08,1.26.92,3.15-.33,4.23-.57.48-1.26.72-1.95.72ZM1582.56,122.09c-1.11,0-2.18-.62-2.7-1.69-.73-1.49-.11-3.29,1.38-4.01,7.99-3.89,16.68-6.72,25.83-8.43,1.64-.3,3.2.77,3.5,2.4.3,1.63-.77,3.2-2.4,3.5-8.62,1.61-16.8,4.27-24.31,7.93-.42.21-.87.3-1.31.3ZM1486.18,120.68h-15.87c-1.66,0-3-1.34-3-3s1.34-3,3-3h15.87c1.66,0,3,1.34,3,3s-1.34,3-3,3Z"/>
  <path class="cls-1" d="M1795.46,462.85c-6.93,0-13.49-.56-19.49-1.65-1.63-.3-2.71-1.86-2.41-3.49.3-1.63,1.86-2.71,3.49-2.41,5.64,1.03,11.83,1.56,18.41,1.56,2.48,0,4.95-.04,7.32-.11,1.63-.04,3.04,1.25,3.09,2.9.05,1.66-1.25,3.04-2.9,3.09-2.44.08-4.96.12-7.51.12ZM1818.69,461.59c-1.5,0-2.79-1.12-2.98-2.65-.19-1.65.98-3.14,2.63-3.33,10.25-1.21,19.27-3.35,26.8-6.34,12.38-4.9,23.51-15.89,33.09-32.66.53-.94,1.53-1.51,2.61-1.51h1.25c1.41,0,2.64.99,2.93,2.37l.06.3c.35,1.62-.69,3.21-2.31,3.56-.13.03-.26.05-.39.06-10.05,16.97-21.83,28.23-35.04,33.46-8.02,3.18-17.54,5.44-28.31,6.72-.12.01-.24.02-.36.02ZM1898.71,455.99h-6.02c-1.1,0-2.12-.6-2.64-1.58-1.62-3.01-3.05-6.15-4.23-9.35-.58-1.55.22-3.28,1.77-3.86,1.55-.58,3.28.22,3.86,1.77.88,2.38,1.91,4.73,3.06,7.01h4.21c1.66,0,3,1.34,3,3s-1.34,3-3,3ZM1973.79,453.1c-1.19,0-2.32-.72-2.79-1.9-3.58-9.03-6.07-17.71-7.41-25.77l-.04-.22c-.28-1.63.83-3.18,2.46-3.46,1.63-.28,3.18.82,3.46,2.46l.04.22c1.27,7.66,3.65,15.92,7.07,24.56.61,1.54-.14,3.28-1.68,3.89-.36.14-.74.21-1.1.21ZM1964.89,411.94c-1.58,0-2.9-1.23-2.99-2.83-.35-6.07-.53-13.11-.53-20.94v-58.6c0-1.66,1.34-3,3-3s3,1.34,3,3v58.6c0,7.71.17,14.63.52,20.59.1,1.65-1.17,3.07-2.82,3.17-.06,0-.12,0-.18,0ZM1721.05,410.36c-1.25,0-2.42-.79-2.84-2.05-.86-2.56-1.64-5.21-2.31-7.87-.66-2.61-1.26-5.25-1.78-7.85-.32-1.62.73-3.2,2.36-3.53,1.62-.32,3.2.73,3.53,2.36.5,2.5,1.07,5.03,1.71,7.54.64,2.53,1.38,5.03,2.19,7.44.53,1.57-.32,3.27-1.89,3.8-.32.11-.64.16-.96.16ZM1863.77,394.73c-.9,0-1.78-.4-2.37-1.16-1.02-1.31-.78-3.19.53-4.21.17-.13.34-.27.51-.41,3.58-2.86,6.72-6.41,9.36-10.57.89-1.4,2.74-1.81,4.14-.93,1.4.89,1.81,2.74.93,4.14-3,4.72-6.58,8.77-10.67,12.03-.19.15-.39.31-.59.47-.55.42-1.19.63-1.84.63ZM1799.57,381.17c-1.3,0-2.5-.85-2.88-2.16-1.98-6.79-2.99-14.4-2.99-22.63,0-1.54.04-3.08.12-4.56.08-1.6,1.41-2.84,2.99-2.84.05,0,.11,0,.16,0,1.66.09,2.93,1.5,2.84,3.15-.07,1.38-.11,2.81-.11,4.25,0,7.66.92,14.7,2.75,20.94.46,1.59-.45,3.26-2.04,3.72-.28.08-.56.12-.84.12ZM1714.43,368.72h0c-1.66,0-3-1.34-3-3,0-16,1.72-30.02,5.11-41.65,3.42-11.77,8.75-21.99,15.85-30.39,1.08-1.28,2.22-2.53,3.38-3.74,1.15-1.19,3.05-1.23,4.24-.08,1.19,1.15,1.23,3.05.08,4.24-1.07,1.11-2.12,2.27-3.12,3.45-6.55,7.75-11.49,17.23-14.67,28.19-3.23,11.09-4.87,24.54-4.87,39.97,0,1.66-1.34,3-3,3ZM1882.01,358.01c-.05,0-.1,0-.15,0-1.65-.08-2.93-1.49-2.84-3.15.06-1.14.09-2.3.08-3.45v-60.17c-1.13.76-2.27,1.49-3.41,2.19-1.42.86-3.26.4-4.12-1.01-.86-1.42-.4-3.26,1.01-4.12,2.62-1.59,5.2-3.37,7.67-5.31.9-.71,2.13-.84,3.17-.34,1.03.5,1.69,1.55,1.69,2.7v66.07c0,1.25-.03,2.52-.09,3.76-.08,1.6-1.41,2.85-2.99,2.85ZM1799.49,339.38c-.3,0-.6-.04-.9-.14-1.58-.5-2.46-2.18-1.96-3.76,1.98-6.32,5.02-11.89,9.03-16.57,7.88-9.2,21.01-15.82,39.04-19.68,5.19-1.2,11.12-3.14,17.58-5.76,1.54-.62,3.29.11,3.91,1.65.62,1.54-.12,3.29-1.65,3.91-6.75,2.74-12.99,4.78-18.53,6.06-16.76,3.59-28.79,9.55-35.79,17.73-3.48,4.05-6.12,8.92-7.86,14.46-.4,1.28-1.58,2.1-2.86,2.1ZM1964.36,306.12c-1.66,0-3-1.34-3-3v-15.87c0-1.66,1.34-3,3-3s3,1.34,3,3v15.87c0,1.66-1.34,3-3,3ZM1750.04,284.8c-.95,0-1.89-.45-2.47-1.29-.94-1.36-.6-3.23.76-4.17,3.45-2.39,7.21-4.62,11.17-6.64,3.97-2.02,8.29-3.98,12.85-5.82,1.54-.62,3.29.12,3.91,1.66.62,1.54-.12,3.28-1.66,3.91-4.4,1.78-8.56,3.67-12.38,5.61-3.72,1.9-7.25,4-10.48,6.23-.52.36-1.12.53-1.7.53ZM1849.63,250.46c-1.32,0-2.52-.87-2.89-2.2-.44-1.6.5-3.25,2.1-3.69,5.56-1.53,10.35-3.33,14.24-5.35,1.47-.76,3.28-.19,4.04,1.28s.19,3.28-1.28,4.05c-4.26,2.21-9.45,4.17-15.42,5.81-.27.07-.53.11-.8.11ZM1880.61,225.08c-.24,0-.49-.03-.74-.09-1.61-.41-2.58-2.04-2.17-3.64.93-3.67,1.4-7.94,1.4-12.67,0-12.09-2.81-21.62-8.35-28.32-5.39-6.49-14.94-9.79-28.38-9.82-1.66,0-3-1.35-2.99-3.01,0-1.65,1.35-2.99,3-2.99h0c15.31.03,26.41,4.06,32.99,11.99,6.46,7.8,9.73,18.62,9.73,32.15,0,5.23-.53,9.99-1.58,14.14-.34,1.36-1.56,2.27-2.91,2.27ZM1751.87,223.52h-15.87c-1.66,0-3-1.34-3-3s1.34-3,3-3h15.87c1.66,0,3,1.34,3,3s-1.34,3-3,3ZM1715.06,218c-1.66,0-3-1.34-3-3v-2.58c0-20.15,7.91-36.75,14.26-50.1l.05-.12c3.47-7.29,9.5-14.64,18.42-22.44,1.25-1.09,3.14-.97,4.23.28,1.09,1.25.96,3.14-.28,4.23-8.3,7.26-13.84,13.96-16.96,20.5l-.06.12c-6.09,12.8-13.68,28.73-13.68,47.52v2.58c0,1.66-1.34,3-3,3ZM1964.33,210.87c-1.63,0-2.97-1.31-3-2.94-.17-9.04-.94-17.75-2.3-25.89-.27-1.63.83-3.18,2.47-3.45,1.63-.27,3.18.83,3.45,2.47,1.41,8.43,2.21,17.44,2.38,26.77.03,1.66-1.29,3.02-2.94,3.06-.02,0-.04,0-.06,0ZM1806.26,188.92c-.74,0-1.48-.27-2.06-.82-1.21-1.14-1.26-3.04-.12-4.24l1.27-1.34c1.71-1.81,3.33-3.52,4.64-5.07,4.1-4.87,9.41-8.4,15.79-10.51,1.58-.52,3.27.33,3.79,1.91.52,1.57-.33,3.27-1.91,3.79-5.31,1.75-9.72,4.67-13.09,8.68-1.42,1.69-3.1,3.46-4.88,5.33l-1.26,1.33c-.59.63-1.39.94-2.18.94ZM1958.51,169.07c-1.28,0-2.47-.83-2.87-2.12-3.17-10.36-8.52-19.53-15.89-27.25-8.34-8.73-20.29-15.6-35.51-20.4-.99-.31-1.99-.61-3.02-.9-1.59-.45-2.52-2.11-2.07-3.71.45-1.59,2.12-2.52,3.71-2.07,1.08.31,2.14.62,3.19.95,16.2,5.11,29,12.51,38.04,21.98,8.02,8.41,13.84,18.38,17.28,29.64.49,1.58-.41,3.26-1.99,3.75-.29.09-.59.13-.88.13ZM1759.15,135.06c-.9,0-1.79-.4-2.38-1.17-1.01-1.31-.76-3.2.56-4.21l.48-.37c6.91-5.28,14.7-9.68,23.15-13.07,1.54-.62,3.29.13,3.9,1.67.62,1.54-.13,3.28-1.67,3.9-7.95,3.18-15.26,7.31-21.74,12.27l-.47.36c-.54.42-1.19.62-1.82.62ZM1876.08,113.63c-.11,0-.22,0-.34-.02-4.91-.55-10.17-.97-15.64-1.25-1.66-.08-2.93-1.49-2.85-3.15.08-1.66,1.54-2.94,3.15-2.85,5.59.28,10.97.71,16.01,1.27,1.65.19,2.83,1.67,2.65,3.32-.17,1.53-1.47,2.67-2.98,2.67Z"/>
  <path class="cls-1" d="M2060.11,461.91c-.08,0-.16,0-.24,0-5.58-.45-10.96-1.07-15.98-1.83-1.64-.25-2.76-1.78-2.51-3.42.25-1.64,1.79-2.77,3.42-2.51,4.88.75,10.11,1.35,15.55,1.78,1.65.13,2.88,1.58,2.75,3.23-.13,1.57-1.44,2.76-2.99,2.76ZM2138.9,456.33c-1.31,0-2.52-.87-2.89-2.2-.44-1.6.49-3.25,2.09-3.69,8.59-2.38,16.56-5.67,23.7-9.77,1.44-.82,3.27-.33,4.1,1.11s.33,3.27-1.11,4.1c-7.58,4.35-16.01,7.83-25.08,10.35-.27.07-.54.11-.8.11ZM2018.65,453.96c-.32,0-.65-.05-.98-.17-13.34-4.6-24.33-11.07-32.66-19.22-9.68-9.46-16.55-21.13-20.42-34.67-.31-1.09-.61-2.19-.89-3.3-.41-1.6.55-3.24,2.16-3.65,1.61-.41,3.24.55,3.65,2.16.27,1.06.56,2.1.85,3.14,3.58,12.52,9.92,23.3,18.85,32.02,7.7,7.52,17.93,13.53,30.42,17.84,1.57.54,2.4,2.25,1.86,3.81-.43,1.24-1.59,2.02-2.84,2.02ZM2176.32,437.23c-.86,0-1.72-.37-2.31-1.08-1.06-1.27-.88-3.17.39-4.22,9.86-8.19,17.75-18.42,23.46-30.39,5.04-10.6,8.02-23.02,8.83-36.93.1-1.65,1.53-2.91,3.17-2.82,1.65.1,2.92,1.52,2.82,3.17-.86,14.68-4.02,27.86-9.4,39.16-6.08,12.77-14.51,23.68-25.04,32.43-.56.47-1.24.69-1.92.69ZM2084.03,406.13c-15.4,0-27.38-4.86-35.62-14.44-8.13-9.44-12.25-21.95-12.25-37.17,0-.74.27-1.42.71-1.94-.44-.52-.71-1.2-.71-1.94v-4.34h-5.53c-1.66,0-3-1.34-3-3s1.34-3,3-3h8.53c1.66,0,3,1.34,3,3v7.34c0,.74-.27,1.42-.71,1.94.44.52.71,1.2.71,1.94,0,13.74,3.63,24.93,10.8,33.26,7.15,8.31,17.32,12.36,31.08,12.36,1.42,0,2.82-.04,4.16-.12,1.67-.1,3.07,1.17,3.17,2.82.1,1.65-1.17,3.07-2.82,3.17-1.46.08-2.98.13-4.51.13ZM2103.88,402.98c-1.22,0-2.38-.76-2.82-1.97-.57-1.56.23-3.28,1.79-3.85,4.14-1.51,7.85-3.63,11.02-6.3,2.91-2.45,5.26-5.45,6.98-8.92.74-1.48,2.54-2.09,4.02-1.36,1.48.74,2.09,2.54,1.36,4.02-2.09,4.21-4.94,7.86-8.49,10.85-3.71,3.12-8.03,5.6-12.83,7.35-.34.12-.69.18-1.03.18ZM1963.53,383.3c-1.47,0-2.76-1.08-2.97-2.58-1.13-8.02-1.7-16.63-1.7-25.57v-1.23c0-1.66,1.34-3,3-3s3,1.34,3,3v1.23c0,8.67.55,16.99,1.64,24.74.23,1.64-.91,3.16-2.55,3.39-.14.02-.28.03-.42.03ZM2208.87,341.37c-1.49,0-2.79-1.11-2.97-2.63-.66-5.33-1.65-10.43-2.94-15.14-.44-1.6.5-3.25,2.1-3.69,1.6-.44,3.25.5,3.69,2.1,1.37,4.99,2.42,10.37,3.11,15.99.2,1.64-.96,3.14-2.61,3.35-.12.02-.25.02-.37.02ZM2091,326.25c-.34,0-.68-.06-1.02-.18l-14.93-5.39c-1.56-.56-2.37-2.28-1.8-3.84.56-1.56,2.28-2.37,3.84-1.8l14.93,5.39c1.56.56,2.37,2.28,1.8,3.84-.44,1.22-1.59,1.98-2.82,1.98ZM2051.18,311.88c-.34,0-.68-.06-1.02-.18l-15.15-5.47c-23.38-8.2-41.49-19.91-53.8-34.78-1.06-1.28-.88-3.17.4-4.22,1.27-1.06,3.17-.88,4.22.4,11.6,14.02,28.82,25.11,51.19,32.96l15.18,5.47c1.56.56,2.37,2.28,1.8,3.84-.44,1.22-1.59,1.98-2.82,1.98ZM2153.33,270.25c-.41,0-.83-.08-1.22-.26-5.32-2.38-11.15-4.65-17.32-6.74l-7.18-2.42c-1.57-.53-2.41-2.23-1.88-3.8.53-1.57,2.23-2.41,3.8-1.88l7.18,2.42c6.35,2.15,12.36,4.49,17.85,6.95,1.51.68,2.19,2.45,1.51,3.96-.5,1.11-1.59,1.77-2.74,1.77ZM1974.71,259.38c-1.08,0-2.12-.58-2.65-1.6-4.1-7.74-7.05-16.42-8.78-25.81-.3-1.63.78-3.19,2.41-3.5,1.64-.3,3.19.78,3.5,2.41,1.62,8.78,4.38,16.89,8.19,24.09.78,1.46.22,3.28-1.25,4.05-.45.24-.93.35-1.4.35ZM2113.53,255.91c-.32,0-.64-.05-.96-.16l-29.5-9.95c-15.22-4.78-25.39-10.62-31.02-17.83-3.15-4.03-5.45-8.42-6.83-13.05-.47-1.59.43-3.26,2.02-3.73,1.59-.47,3.26.43,3.73,2.02,1.16,3.91,3.12,7.63,5.81,11.06,4.79,6.14,14.26,11.46,28.15,15.82l29.56,9.97c1.57.53,2.41,2.23,1.88,3.8-.42,1.25-1.59,2.04-2.84,2.04ZM2202.44,221.02h-58.14c-1.66,0-3-1.34-3-3s1.34-3,3-3h55.14v-10.71c0-2.48-.06-4.96-.19-7.36-.09-1.65,1.18-3.07,2.83-3.16,1.65-.1,3.07,1.18,3.16,2.83.13,2.51.2,5.09.2,7.68v13.71c0,1.66-1.34,3-3,3ZM2128.43,221.02h-3.27c-1.66,0-3-1.34-3-3,0-8.63-.71-16.16-2.11-22.37-.36-1.62.65-3.22,2.27-3.59,1.61-.36,3.22.65,3.59,2.27,1.33,5.91,2.08,12.85,2.23,20.69h.3c1.66,0,3,1.34,3,3s-1.34,3-3,3ZM2049.54,191.14c-.4,0-.81-.08-1.2-.25-1.52-.66-2.21-2.43-1.55-3.95,2.23-5.1,5.66-9.4,10.19-12.77.26-.19.52-.38.78-.56,1.35-.96,3.22-.65,4.18.7.96,1.35.65,3.22-.7,4.18-.23.16-.46.33-.68.5-3.68,2.74-6.47,6.22-8.27,10.35-.49,1.13-1.59,1.8-2.75,1.8ZM2197.82,173.78c-1.28,0-2.47-.83-2.87-2.12-1.53-4.99-3.48-9.75-5.79-14.15-.77-1.47-.21-3.28,1.26-4.05,1.47-.77,3.28-.21,4.05,1.26,2.49,4.73,4.58,9.84,6.21,15.18.49,1.58-.41,3.26-1.99,3.75-.29.09-.59.13-.88.13ZM1979.29,157.95c-.56,0-1.13-.16-1.64-.49-1.39-.91-1.78-2.77-.87-4.15,2.95-4.51,6.41-8.82,10.27-12.81,1.15-1.19,3.05-1.22,4.24-.07,1.19,1.15,1.22,3.05.07,4.24-3.6,3.71-6.81,7.72-9.55,11.92-.58.88-1.54,1.36-2.51,1.36ZM2010.13,129.54c-1.04,0-2.06-.55-2.61-1.52-.82-1.44-.31-3.27,1.13-4.09,6.51-3.7,13.82-6.97,21.73-9.71,15.57-5.39,34.48-8.17,56.21-8.27h.01c1.65,0,2.99,1.33,3,2.99,0,1.66-1.33,3.01-2.99,3.01-21.07.09-39.33,2.76-54.27,7.93-7.56,2.62-14.54,5.74-20.73,9.26-.47.27-.98.39-1.48.39ZM2128.69,115.72c-.2,0-.41-.02-.61-.06-7.88-1.63-16.56-2.74-25.79-3.29-1.65-.1-2.92-1.52-2.82-3.17.1-1.65,1.53-2.93,3.17-2.82,9.52.56,18.48,1.71,26.65,3.4,1.62.34,2.67,1.92,2.33,3.55-.29,1.42-1.54,2.39-2.93,2.39Z"/>
  <path class="cls-1" d="M639.02,905.77h-14.85c-1.66,0-3-1.34-3-3s1.34-3,3-3h11.85v-8.61c0-1.66,1.34-3,3-3s3,1.34,3,3v11.61c0,1.66-1.34,3-3,3ZM549.27,901.29c-1.66,0-3-1.34-3-3v-15.87c0-1.66,1.34-3,3-3s3,1.34,3,3v15.87c0,1.66-1.34,3-3,3ZM639.02,878.28c-1.66,0-3-1.34-3-3v-79.37c0-1.66,1.34-3,3-3s3,1.34,3,3v79.37c0,1.66-1.34,3-3,3ZM549.27,858.96c-1.66,0-3-1.34-3-3v-79.37c0-1.66,1.34-3,3-3s3,1.34,3,3v79.37c0,1.66-1.34,3-3,3ZM639.02,772.45c-1.66,0-3-1.34-3-3v-15.87c0-1.66,1.34-3,3-3s3,1.34,3,3v15.87c0,1.66-1.34,3-3,3ZM549.27,763.72c-1.66,0-3-1.34-3-3v-26.46c0-1.66,1.34-3,3-3s3,1.34,3,3v26.46c0,1.66-1.34,3-3,3ZM689.95,728.12c-1.64,0-2.98-1.32-3-2.96-.02-1.66,1.31-3.02,2.96-3.04,8.98-.11,17.74-.72,26.01-1.83,1.64-.22,3.15.93,3.37,2.57.22,1.64-.93,3.15-2.57,3.37-8.52,1.14-17.51,1.78-26.74,1.89h-.04ZM731.94,723.49c-1.37,0-2.61-.95-2.93-2.35-.36-1.62.66-3.22,2.28-3.58,4.36-.97,8.66-2.11,12.79-3.39,16.96-5.24,31.59-13.21,43.47-23.69,3.54-3.12,6.9-6.56,9.97-10.22,1.07-1.27,2.96-1.43,4.23-.37,1.27,1.07,1.43,2.96.37,4.23-3.27,3.89-6.83,7.54-10.59,10.86-12.52,11.04-27.88,19.43-45.66,24.92-4.28,1.33-8.75,2.51-13.26,3.52-.22.05-.44.07-.66.07ZM814.16,663.03c-.45,0-.9-.1-1.33-.31-1.49-.73-2.1-2.53-1.36-4.02,1.4-2.84,2.73-5.82,3.95-8.86.71-1.78,1.4-3.6,2.03-5.43.54-1.57,2.25-2.4,3.82-1.85,1.57.54,2.39,2.25,1.85,3.82-.67,1.92-1.38,3.84-2.13,5.7-1.28,3.18-2.67,6.3-4.14,9.27-.52,1.06-1.59,1.67-2.69,1.67ZM678.91,662.07c-1.66,0-3-1.34-3-3s1.34-3,3-3c16.97,0,30.83-5.16,41.21-15.35,6.55-6.43,11.09-15.32,13.5-26.44.35-1.62,1.95-2.65,3.57-2.3,1.62.35,2.65,1.95,2.3,3.57-2.66,12.28-7.76,22.19-15.16,29.45-11.54,11.32-26.82,17.06-45.41,17.06ZM549.27,657.89c-1.66,0-3-1.34-3-3v-15.87c0-1.66,1.34-3,3-3s3,1.34,3,3v15.87c0,1.66-1.34,3-3,3ZM639.02,645.54c-1.66,0-3-1.34-3-3v-26.46c0-1.66,1.34-3,3-3s3,1.34,3,3v26.46c0,1.66-1.34,3-3,3ZM549.27,615.56c-1.66,0-3-1.34-3-3v-79.37c0-1.66,1.34-3,3-3s3,1.34,3,3v79.37c0,1.66-1.34,3-3,3ZM639.02,603.21c-1.66,0-3-1.34-3-3v-76.38c0-1.66,1.34-3,3-3h2.99c1.66,0,3,1.34,3,3s-1.34,2.99-2.99,3v73.38c0,1.66-1.34,3-3,3ZM738.57,602.19c-.05,0-.1,0-.16,0-1.65-.09-2.93-1.5-2.84-3.15.11-2.15.17-4.39.17-6.66,0-6.87-.46-13.29-1.38-19.1-.26-1.64.86-3.17,2.5-3.43,1.64-.26,3.17.86,3.43,2.5.97,6.12,1.46,12.86,1.46,20.04,0,2.37-.06,4.72-.18,6.97-.08,1.6-1.41,2.84-2.99,2.84ZM827,569.97c-1.49,0-2.78-1.11-2.97-2.63-1.02-8.16-2.59-16.36-4.67-24.38-.1-.39-.2-.78-.31-1.16-.43-1.6.52-3.25,2.12-3.68,1.6-.43,3.25.52,3.68,2.12.11.4.22.81.32,1.22,2.15,8.26,3.77,16.72,4.82,25.14.21,1.64-.96,3.14-2.61,3.35-.13.02-.25.02-.38.02ZM816.87,528.99c-1.18,0-2.3-.7-2.78-1.86-3.81-9.28-8.78-17.96-14.79-25.79-9.22-12.03-21.55-21.91-36.65-29.37-1.49-.73-2.09-2.53-1.36-4.02.73-1.49,2.53-2.1,4.02-1.36,15.93,7.87,28.97,18.33,38.75,31.09,6.33,8.25,11.57,17.39,15.58,27.16.63,1.53-.1,3.29-1.64,3.91-.37.15-.76.23-1.14.23ZM684.34,527.08c-.07,0-.14,0-.21,0-2.46-.17-5.06-.25-7.71-.25h-7.95c-1.66,0-3-1.34-3-3s1.34-3,3-3h7.95c2.79,0,5.52.09,8.12.27,1.65.11,2.9,1.54,2.79,3.2-.11,1.58-1.43,2.8-2.99,2.8ZM549.27,520.31c-1.66,0-3-1.34-3-3v-26.46c0-1.66,1.34-3,3-3s3,1.34,3,3v26.46c0,1.66-1.34,3-3,3ZM611.42,460.75h-15.87c-1.66,0-3-1.34-3-3s1.34-3,3-3h15.87c1.66,0,3,1.34,3,3s-1.34,3-3,3Z"/>
  <path class="cls-1" d="M900.82,905.77h-15.87c-1.66,0-3-1.34-3-3s1.34-3,3-3h15.87c1.66,0,3,1.34,3,3s-1.34,3-3,3ZM858.48,905.77h-32.49c-1.66,0-3-1.34-3-3v-46.88c0-1.66,1.34-3,3-3s3,1.34,3,3v43.88h29.49c1.66,0,3,1.34,3,3s-1.34,3-3,3ZM826,843.01c-1.66,0-3-1.34-3-3v-26.46c0-1.66,1.34-3,3-3s3,1.34,3,3v26.46c0,1.66-1.34,3-3,3ZM912,837.58c-1.66,0-3-1.34-3-3v-26.46c0-1.66,1.34-3,3-3s3,1.34,3,3v26.46c0,1.66-1.34,3-3,3ZM912,795.25c-1.66,0-3-1.34-3-3v-79.37c0-1.66,1.34-3,3-3s3,1.34,3,3v79.37c0,1.66-1.34,3-3,3ZM826,737.18c-1.66,0-3-1.34-3-3v-15.87c0-1.66,1.34-3,3-3s3,1.34,3,3v15.87c0,1.66-1.34,3-3,3ZM826,694.85c-1.66,0-3-1.34-3-3v-28.57c0-1.66,1.34-3,3-3s3,1.34,3,3v28.57c0,1.66-1.34,3-3,3ZM912,689.42c-1.66,0-3-1.34-3-3v-15.87c0-1.66,1.34-3,3-3s3,1.34,3,3v15.87c0,1.66-1.34,3-3,3ZM912,594.18c-1.66,0-3-1.34-3-3v-26.46c0-1.66,1.34-3,3-3s3,1.34,3,3v26.46c0,1.66-1.34,3-3,3ZM912,551.85c-1.66,0-3-1.34-3-3v-79.37c0-1.66,1.34-3,3-3s3,1.34,3,3v79.37c0,1.66-1.34,3-3,3ZM826,533.33c-1.66,0-3-1.34-3-3v-72.57c0-1.66,1.34-3,3-3s3,1.34,3,3v72.57c0,1.66-1.34,3-3,3Z"/>
  <path class="cls-1" d="M983.06,912.62c-12.06,0-22.85-1.68-32.08-5-1.56-.56-2.37-2.28-1.81-3.84.56-1.56,2.28-2.37,3.84-1.81,8.57,3.08,18.68,4.65,30.05,4.65,18.46,0,33.99-2.11,46.16-6.28,1.57-.53,3.27.3,3.81,1.87.54,1.57-.3,3.27-1.87,3.81-12.8,4.38-28.98,6.6-48.1,6.6ZM1162.55,905.77h-9.42c-1.66,0-3-1.34-3-3s1.34-3,3-3h4.98c-3.33-8.63-5.66-16.88-6.94-24.56-1.47-8.82-2.22-21.36-2.22-37.26v-3.73c0-1.66,1.34-3,3-3s3,1.34,3,3v3.73c0,15.57.72,27.78,2.14,36.28,1.41,8.45,4.17,17.66,8.22,27.39.39.93.28,1.98-.27,2.82s-1.49,1.34-2.5,1.34ZM1137.26,905.77h-26.46c-1.66,0-3-1.34-3-3s1.34-3,3-3h26.46c1.66,0,3,1.34,3,3s-1.34,3-3,3ZM937.83,900.7c-.56,0-1.13-.16-1.64-.49-7.4-4.85-13.64-10.97-18.56-18.19-.93-1.37-.58-3.24.79-4.17,1.37-.93,3.24-.58,4.17.79,4.48,6.57,10.16,12.14,16.9,16.55,1.39.91,1.77,2.77.86,4.15-.58.88-1.53,1.36-2.51,1.36ZM1052.43,892.33c-.77,0-1.55-.3-2.14-.89-1.16-1.18-1.15-3.08.03-4.24,3.38-3.34,6.68-7.29,9.8-11.76.95-1.36,2.82-1.69,4.18-.74,1.36.95,1.69,2.82.74,4.18-3.33,4.76-6.86,9-10.5,12.59-.58.58-1.35.86-2.11.86ZM1051.37,844.5c-.89,0-1.78-.4-2.37-1.16-1.02-1.31-.78-3.19.52-4.21l.53-.42c3.56-2.85,6.71-6.4,9.34-10.56.89-1.4,2.74-1.81,4.14-.93,1.4.89,1.81,2.74.93,4.14-2.99,4.71-6.58,8.76-10.67,12.03l-.59.47c-.55.43-1.2.63-1.84.63ZM987.17,830.95c-1.3,0-2.5-.85-2.88-2.16-1.98-6.78-2.99-14.4-2.99-22.63,0-1.54.04-3.08.12-4.56.09-1.65,1.5-2.91,3.15-2.84,1.65.09,2.93,1.5,2.84,3.15-.07,1.38-.11,2.81-.11,4.25,0,7.66.92,14.71,2.75,20.95.46,1.59-.45,3.26-2.04,3.72-.28.08-.56.12-.84.12ZM1151.96,810.75c-1.66,0-3-1.34-3-3v-15.87c0-1.66,1.34-3,3-3s3,1.34,3,3v15.87c0,1.66-1.34,3-3,3ZM1069.6,807.78c-.05,0-.1,0-.15,0-1.65-.08-2.93-1.49-2.84-3.15.06-1.12.09-2.28.09-3.45v-60.16c-1.13.76-2.27,1.49-3.42,2.19-1.42.86-3.26.4-4.12-1.01-.86-1.42-.4-3.26,1.01-4.12,2.62-1.59,5.2-3.37,7.67-5.31.9-.71,2.13-.84,3.17-.34,1.03.5,1.69,1.55,1.69,2.7v66.07c0,1.27-.03,2.53-.09,3.75-.08,1.6-1.41,2.85-2.99,2.85ZM987.08,789.15c-.3,0-.6-.04-.9-.14-1.58-.5-2.46-2.18-1.96-3.76,1.98-6.32,5.02-11.9,9.03-16.57,7.88-9.19,21.01-15.81,39.04-19.68,5.21-1.2,11.14-3.15,17.57-5.76,1.54-.62,3.29.11,3.91,1.65.62,1.54-.11,3.29-1.65,3.91-6.73,2.74-12.96,4.78-18.53,6.06-16.76,3.59-28.79,9.56-35.79,17.73-3.48,4.05-6.12,8.92-7.86,14.46-.4,1.28-1.59,2.1-2.86,2.1ZM922.29,748.39c-.68,0-1.37-.23-1.94-.71-1.27-1.07-1.42-2.96-.35-4.23,7.07-8.36,16.19-15.43,27.11-20.99,10.73-5.47,23.81-10.36,38.89-14.55l4.91-1.32c1.6-.43,3.25.52,3.68,2.12.43,1.6-.52,3.25-2.12,3.68l-4.89,1.32c-14.66,4.08-27.37,8.83-37.75,14.11-10.2,5.2-18.69,11.77-25.25,19.52-.59.7-1.44,1.06-2.29,1.06ZM1151.96,715.51c-1.66,0-3-1.34-3-3v-26.46c0-1.66,1.34-3,3-3s3,1.34,3,3v26.46c0,1.66-1.34,3-3,3ZM1007.01,708.36c-1.32,0-2.53-.88-2.9-2.22-.43-1.6.52-3.25,2.12-3.68l25.55-6.88c1.6-.43,3.25.52,3.68,2.12.43,1.6-.52,3.25-2.12,3.68l-25.55,6.88c-.26.07-.52.1-.78.1ZM976.32,673.29h-26.46c-1.66,0-3-1.34-3-3s1.34-3,3-3h26.46c1.66,0,3,1.34,3,3s-1.34,3-3,3ZM1151.96,673.18c-1.66,0-3-1.34-3-3v-8.62c0-14.63-1.54-28.33-4.58-40.73-2.29-9.29-6.2-17.69-11.63-24.98-.99-1.33-.71-3.21.61-4.2,1.33-.99,3.21-.71,4.2.61,5.91,7.94,10.16,17.06,12.65,27.13,3.16,12.87,4.76,27.06,4.76,42.17v8.62c0,1.66-1.34,3-3,3ZM989.91,671c-1.66,0-3-1.34-3-3v-7.06c0-13.96,3.59-25.3,10.68-33.72,7.22-8.56,18.06-12.91,32.21-12.91,1.78,0,3.53.05,5.19.16,1.65.11,2.91,1.53,2.8,3.19-.11,1.65-1.53,2.91-3.19,2.8-1.54-.1-3.15-.15-4.81-.15-12.48,0-21.52,3.52-27.63,10.77-6.15,7.31-9.27,17.35-9.27,29.86v7.06c0,1.66-1.34,3-3,3ZM1067.05,643.04c-1.26,0-2.43-.8-2.85-2.06-1.37-4.15-3.34-7.8-5.86-10.85-.43-.52-.9-1.03-1.38-1.51-1.18-1.16-1.19-3.06-.02-4.24,1.16-1.18,3.06-1.19,4.24-.02.62.62,1.23,1.27,1.79,1.95,3,3.63,5.33,7.93,6.94,12.79.52,1.57-.33,3.27-1.91,3.79-.31.1-.63.15-.94.15ZM921.98,616.26c-.43,0-.87-.09-1.29-.29-1.5-.71-2.13-2.5-1.42-4,6.41-13.46,15.2-24.53,26.12-32.88,10.08-7.71,21.98-13.49,35.35-17.16,1.59-.44,3.25.5,3.69,2.1.44,1.6-.5,3.25-2.1,3.69-12.62,3.47-23.83,8.9-33.29,16.14-10.16,7.77-18.35,18.1-24.35,30.7-.51,1.08-1.59,1.71-2.71,1.71ZM1115.69,579.38c-.53,0-1.08-.14-1.56-.44-4.11-2.52-8.74-4.82-13.75-6.83-1.54-.62-2.28-2.36-1.67-3.9s2.37-2.28,3.9-1.67c5.32,2.14,10.25,4.59,14.65,7.28,1.41.87,1.86,2.71.99,4.13-.57.92-1.55,1.43-2.56,1.43ZM997.04,564.44c-1.44,0-2.71-1.03-2.95-2.5-.28-1.63.82-3.18,2.45-3.46,8.57-1.46,17.55-2.35,26.71-2.65,1.63-.07,3.04,1.24,3.1,2.9.05,1.66-1.24,3.04-2.9,3.1-8.89.29-17.6,1.15-25.9,2.56-.17.03-.34.04-.51.04Z"/>
  <path class="cls-1" d="M1256.04,912.62c-8.05,0-15.74-.7-22.85-2.08-1.63-.32-2.69-1.89-2.38-3.52.32-1.63,1.89-2.69,3.52-2.37,6.74,1.31,14.04,1.97,21.71,1.97,1.33,0,2.65-.02,3.96-.06,1.62-.03,3.04,1.26,3.08,2.91.05,1.66-1.26,3.04-2.91,3.08-1.36.04-2.73.06-4.13.06ZM1275.87,911.09c-1.44,0-2.71-1.04-2.96-2.51-.27-1.63.83-3.18,2.47-3.45,8.67-1.44,16.47-3.97,23.2-7.51,11.3-5.95,21.71-16.7,30.93-31.93.54-.9,1.52-1.45,2.57-1.45h1.25c1.66,0,3,1.34,3,3v6.04c0,1.66-1.34,3-3,3-1.08,0-2.03-.57-2.56-1.44-8.84,13.02-18.7,22.45-29.39,28.08-7.29,3.84-15.71,6.57-25.01,8.12-.17.03-.33.04-.5.04ZM1346.17,905.77h-12.85c-1.66,0-3-1.34-3-3v-3.03c0-1.66,1.34-3,3-3s3,1.34,3,3v.03h9.85c1.66,0,3,1.34,3,3s-1.34,3-3,3ZM1415.59,895.81c-1.66,0-3-1.34-3-3v-26.46c0-1.66,1.34-3,3-3s3,1.34,3,3v26.46c0,1.66-1.34,3-3,3ZM1415.59,853.48c-1.66,0-3-1.34-3-3v-79.37c0-1.66,1.34-3,3-3s3,1.34,3,3v79.37c0,1.66-1.34,3-3,3ZM1284.08,848.42c-20.09,0-33.32-10.05-39.33-29.86-3.58-11.8-6.06-27.39-7.38-46.33-.11-1.65,1.13-3.09,2.79-3.2,1.63-.11,3.09,1.13,3.2,2.78,1.29,18.49,3.69,33.64,7.14,45.01,5.22,17.23,16.21,25.6,33.58,25.6,10.71,0,18.86-2.96,24.94-9.05,1.17-1.17,3.07-1.18,4.24,0,1.17,1.17,1.17,3.07,0,4.24-7.16,7.17-16.97,10.81-29.18,10.81ZM1319.59,825.2c-.37,0-.75-.07-1.11-.22-1.54-.61-2.29-2.36-1.67-3.9.54-1.35,1.04-2.78,1.49-4.27,1.79-5.91,3.32-12.89,4.53-20.74.25-1.64,1.78-2.76,3.42-2.51,1.64.25,2.76,1.78,2.51,3.42-1.25,8.13-2.84,15.39-4.71,21.57-.5,1.65-1.06,3.25-1.66,4.75-.47,1.17-1.6,1.89-2.79,1.89ZM1239.29,748.58c-1.63,0-2.97-1.31-3-2.95-.05-3.43-.08-6.97-.08-10.52,0-1.83,0-3.64.02-5.42.01-1.65,1.35-2.98,3-2.98h.02c1.66.01,2.99,1.37,2.98,3.02-.01,1.77-.02,3.56-.02,5.38,0,3.52.03,7.03.08,10.43.03,1.66-1.3,3.02-2.95,3.05-.02,0-.03,0-.05,0ZM1415.59,747.65c-1.66,0-3-1.34-3-3v-15.87c0-1.66,1.34-3,3-3s3,1.34,3,3v15.87c0,1.66-1.34,3-3,3ZM1329.34,720.34c-1.62,0-2.95-1.29-3-2.92-.15-5.46-.39-10.77-.69-15.76-.1-1.65,1.16-3.08,2.81-3.18,1.67-.09,3.08,1.16,3.18,2.81.31,5.06.55,10.43.7,15.96.05,1.66-1.26,3.04-2.91,3.08-.03,0-.06,0-.09,0ZM1326.01,678.16c-1.46,0-2.74-1.07-2.96-2.56-1.25-8.46-2.84-15.93-4.75-22.21-5.23-17.23-16.42-25.6-34.22-25.6-1.92,0-3.79.1-5.55.31-1.66.19-3.14-.99-3.33-2.63-.19-1.65.98-3.14,2.63-3.33,1.99-.23,4.09-.35,6.25-.35,20.5,0,33.95,10.05,39.96,29.86,1.99,6.56,3.65,14.32,4.94,23.07.24,1.64-.89,3.16-2.53,3.4-.15.02-.3.03-.44.03ZM1248.07,654.1c-.31,0-.63-.05-.94-.15-1.57-.52-2.43-2.22-1.91-3.79,3.4-10.28,8.93-17.88,16.45-22.58,1.4-.88,3.25-.45,4.13.95.88,1.4.45,3.26-.95,4.13-6.3,3.94-10.99,10.46-13.93,19.38-.42,1.26-1.59,2.06-2.85,2.06ZM1415.59,652.41c-1.66,0-3-1.34-3-3v-26.46c0-1.66,1.34-3,3-3s3,1.34,3,3v26.46c0,1.66-1.34,3-3,3ZM1415.59,610.08c-1.66,0-3-1.34-3-3v-79.37c0-1.66,1.34-3,3-3s3,1.34,3,3v79.37c0,1.66-1.34,3-3,3ZM1178.12,603.17c-.53,0-1.06-.14-1.54-.43-1.42-.85-1.88-2.7-1.02-4.12,14.89-24.75,37.36-38.94,66.79-42.18,1.64-.18,3.13,1.01,3.31,2.65.18,1.65-1.01,3.13-2.66,3.31-27.47,3.02-48.43,16.24-62.3,39.3-.56.94-1.56,1.45-2.57,1.45ZM1329.58,581.01c-1.66,0-3-1.34-3-3v-15.87c0-1.66,1.34-3,3-3s3,1.34,3,3v15.87c0,1.66-1.34,3-3,3ZM1284.54,565.92c-.31,0-.63-.05-.94-.15-7.51-2.47-15.97-3.82-25.15-4.02-1.66-.04-2.97-1.41-2.93-3.06.04-1.66,1.4-2.99,3.06-2.94,9.77.21,18.82,1.66,26.9,4.32,1.57.52,2.43,2.21,1.91,3.79-.42,1.26-1.59,2.06-2.85,2.06ZM1329.58,538.68c-1.66,0-3-1.34-3-3v-79.37c0-1.66,1.34-3,3-3s3,1.34,3,3v79.37c0,1.66-1.34,3-3,3ZM1415.59,504.25c-1.66,0-3-1.34-3-3v-15.87c0-1.66,1.34-3,3-3s3,1.34,3,3v15.87c0,1.66-1.34,3-3,3ZM1368.6,455.99h-26.46c-1.66,0-3-1.34-3-3s1.34-3,3-3h26.46c1.66,0,3,1.34,3,3s-1.34,3-3,3Z"/>
  <path class="cls-1" d="M1513.83,911.68c-.08,0-.16,0-.24,0-5.58-.45-10.96-1.07-15.98-1.83-1.64-.25-2.76-1.78-2.51-3.42.25-1.64,1.79-2.76,3.42-2.51,4.88.75,10.12,1.35,15.56,1.78,1.65.13,2.88,1.58,2.75,3.23-.13,1.57-1.44,2.76-2.99,2.76ZM1592.62,906.11c-1.31,0-2.52-.87-2.89-2.2-.44-1.6.49-3.25,2.09-3.69,8.58-2.38,16.56-5.67,23.7-9.77,1.44-.83,3.27-.33,4.1,1.11s.33,3.27-1.11,4.1c-7.58,4.35-16.01,7.83-25.08,10.35-.27.07-.54.11-.8.11ZM1472.37,903.73c-.32,0-.66-.05-.98-.17-13.33-4.6-24.32-11.07-32.65-19.22-9.68-9.46-16.55-21.12-20.42-34.67-.31-1.09-.61-2.19-.9-3.3-.41-1.6.55-3.24,2.16-3.65,1.6-.41,3.24.55,3.65,2.16.27,1.06.56,2.11.86,3.15,3.58,12.53,9.92,23.31,18.84,32.03,7.7,7.52,17.93,13.53,30.42,17.84,1.57.54,2.4,2.25,1.86,3.81-.43,1.24-1.59,2.02-2.84,2.02ZM1630.05,887.01c-.86,0-1.72-.37-2.31-1.08-1.06-1.27-.88-3.17.39-4.22,9.86-8.18,17.75-18.41,23.47-30.4,5.04-10.59,8.01-23.01,8.82-36.92.1-1.65,1.51-2.92,3.17-2.82,1.65.1,2.92,1.52,2.82,3.17-.86,14.69-4.01,27.86-9.39,39.15-6.09,12.78-14.52,23.69-25.05,32.43-.56.47-1.24.69-1.91.69ZM1537.75,855.91c-15.4,0-27.38-4.86-35.62-14.44-8.13-9.44-12.26-21.95-12.26-37.17,0-.74.27-1.41.71-1.93-.44-.52-.71-1.2-.71-1.93v-4.35h-5.52c-1.66,0-3-1.34-3-3s1.34-3,3-3h8.52c1.66,0,3,1.34,3,3v7.35c0,.74-.27,1.41-.71,1.93.44.52.71,1.2.71,1.93,0,13.74,3.64,24.93,10.81,33.26,7.14,8.32,17.3,12.36,31.07,12.36,1.42,0,2.82-.04,4.17-.12,1.67-.1,3.07,1.17,3.17,2.82s-1.17,3.07-2.82,3.17c-1.46.08-2.98.13-4.51.13ZM1557.61,852.76c-1.23,0-2.38-.76-2.82-1.97-.57-1.56.24-3.28,1.79-3.85,4.14-1.51,7.85-3.63,11.02-6.3,2.91-2.45,5.26-5.45,6.98-8.92.74-1.48,2.54-2.09,4.02-1.36,1.48.74,2.09,2.54,1.36,4.02-2.09,4.21-4.94,7.86-8.49,10.85-3.71,3.12-8.03,5.6-12.83,7.35-.34.12-.69.18-1.03.18ZM1417.26,833.06c-1.47,0-2.76-1.08-2.97-2.58-1.13-8.02-1.7-16.62-1.7-25.56v-1.23c0-1.66,1.34-3,3-3s3,1.34,3,3v1.23c0,8.66.55,16.98,1.64,24.73.23,1.64-.91,3.16-2.55,3.39-.14.02-.28.03-.42.03ZM1662.59,791.15c-1.49,0-2.79-1.11-2.97-2.63-.66-5.33-1.65-10.42-2.94-15.14-.44-1.6.5-3.25,2.1-3.69,1.59-.44,3.25.5,3.69,2.1,1.37,5,2.42,10.38,3.11,15.99.2,1.64-.97,3.14-2.61,3.34-.12.02-.25.02-.37.02ZM1544.73,776.02c-.34,0-.68-.06-1.02-.18l-14.93-5.39c-1.56-.56-2.37-2.28-1.8-3.84.56-1.56,2.28-2.37,3.84-1.8l14.93,5.39c1.56.56,2.37,2.28,1.8,3.84-.44,1.22-1.59,1.98-2.82,1.98ZM1504.91,761.65c-.34,0-.68-.06-1.02-.18l-15.15-5.47c-23.37-8.2-41.48-19.9-53.8-34.78-1.06-1.28-.88-3.17.4-4.22,1.28-1.06,3.17-.88,4.22.4,11.62,14.02,28.84,25.11,51.19,32.95l15.18,5.48c1.56.56,2.37,2.28,1.8,3.84-.44,1.22-1.59,1.98-2.82,1.98ZM1607.07,720.02c-.41,0-.83-.08-1.22-.26-5.32-2.38-11.15-4.65-17.32-6.74l-7.18-2.42c-1.57-.53-2.41-2.23-1.88-3.8.53-1.57,2.23-2.41,3.8-1.88l7.18,2.42c6.35,2.15,12.36,4.49,17.85,6.95,1.51.68,2.19,2.45,1.51,3.96-.5,1.11-1.59,1.77-2.74,1.77ZM1428.44,709.15c-1.08,0-2.12-.58-2.65-1.6-4.1-7.74-7.05-16.42-8.79-25.8-.3-1.63.78-3.19,2.41-3.5,1.62-.3,3.19.77,3.5,2.41,1.62,8.78,4.38,16.89,8.19,24.09.78,1.46.22,3.28-1.25,4.05-.45.24-.93.35-1.4.35ZM1567.26,705.68c-.32,0-.64-.05-.96-.16l-29.51-9.96c-15.22-4.78-25.38-10.62-31.01-17.83-3.15-4.02-5.45-8.41-6.83-13.04-.47-1.59.43-3.26,2.02-3.73,1.59-.47,3.26.43,3.73,2.02,1.16,3.91,3.12,7.63,5.81,11.06,4.78,6.14,14.25,11.46,28.14,15.82l29.58,9.97c1.57.53,2.41,2.23,1.88,3.8-.42,1.25-1.59,2.04-2.84,2.04ZM1656.17,670.79h-58.13c-1.66,0-3-1.34-3-3s1.34-3,3-3h55.13v-10.71c0-2.49-.06-4.96-.19-7.36-.09-1.65,1.18-3.07,2.83-3.16,1.67-.09,3.07,1.18,3.16,2.83.13,2.51.2,5.09.2,7.69v13.71c0,1.66-1.34,3-3,3ZM1582.16,670.79h-3.28c-1.66,0-3-1.34-3-3,0-8.63-.71-16.15-2.11-22.37-.36-1.62.65-3.22,2.27-3.59,1.61-.36,3.22.65,3.59,2.27,1.33,5.91,2.08,12.85,2.23,20.69h.3c1.66,0,3,1.34,3,3s-1.34,3-3,3ZM1503.27,640.92c-.4,0-.81-.08-1.2-.25-1.52-.66-2.21-2.43-1.55-3.95,2.23-5.1,5.66-9.4,10.19-12.77.26-.19.51-.38.77-.56,1.35-.97,3.22-.65,4.19.69.96,1.35.65,3.22-.69,4.19-.23.16-.46.33-.69.5-3.68,2.74-6.46,6.22-8.27,10.35-.49,1.13-1.59,1.8-2.75,1.8ZM1651.55,623.55c-1.28,0-2.47-.83-2.87-2.12-1.53-4.99-3.48-9.75-5.79-14.15-.77-1.47-.21-3.28,1.26-4.05,1.47-.77,3.28-.21,4.05,1.26,2.49,4.73,4.58,9.84,6.21,15.18.49,1.58-.41,3.26-1.99,3.75-.29.09-.59.13-.88.13ZM1433.02,607.72c-.56,0-1.13-.16-1.64-.49-1.39-.91-1.78-2.77-.87-4.15,2.95-4.51,6.41-8.82,10.27-12.81,1.16-1.19,3.05-1.22,4.24-.07,1.19,1.15,1.22,3.05.07,4.24-3.6,3.71-6.81,7.72-9.55,11.92-.58.88-1.54,1.36-2.51,1.36ZM1463.86,579.31c-1.04,0-2.06-.55-2.61-1.52-.82-1.44-.31-3.27,1.13-4.09,6.51-3.7,13.82-6.97,21.73-9.71,15.57-5.39,34.49-8.17,56.22-8.27h.01c1.65,0,2.99,1.33,3,2.99,0,1.66-1.33,3.01-2.99,3.01-21.07.09-39.33,2.76-54.28,7.94-7.56,2.62-14.53,5.74-20.73,9.26-.47.27-.98.39-1.48.39ZM1582.42,565.49c-.2,0-.41-.02-.61-.06-7.88-1.63-16.56-2.74-25.79-3.29-1.65-.1-2.92-1.52-2.82-3.17.1-1.65,1.51-2.93,3.17-2.82,9.52.56,18.49,1.71,26.65,3.4,1.62.34,2.67,1.92,2.33,3.55-.29,1.42-1.54,2.39-2.93,2.39Z"/>
</svg>